<svg width="169" height="47" viewBox="0 0 169 47" fill="none" xmlns="http://www.w3.org/2000/svg">
<g style="mix-blend-mode:multiply">
<path d="M127.237 12.9909C128.415 12.9096 130.649 12.7268 132.213 12.5846C133.777 12.4425 135.158 12.3206 135.26 12.3003C135.382 12.3003 135.463 12.4018 135.443 12.544C135.422 12.6659 133.94 17.2155 132.152 22.6384C130.365 28.0613 128.476 33.9311 127.968 35.6981C127.461 37.4449 127.034 39.09 127.034 39.3541C127.034 39.5978 127.115 39.9228 127.197 40.0649C127.318 40.2883 127.461 40.2883 128.05 40.0446C128.436 39.9024 129.654 38.9072 132.741 35.9419L133.98 37.1605L133.371 38.0745C133.046 38.5823 132.152 39.6993 131.421 40.5727C130.69 41.4257 129.471 42.6444 128.72 43.274C127.948 43.9036 126.892 44.6348 126.323 44.9192C125.612 45.2848 124.881 45.4676 123.886 45.5488C122.647 45.6097 122.383 45.5691 121.753 45.1426C121.367 44.8785 120.88 44.3505 120.677 43.9646C120.393 43.4162 120.332 42.949 120.393 41.9335C120.474 40.9992 121.205 38.3995 122.972 32.8953C124.353 28.6504 125.856 23.918 126.344 22.3744C126.872 20.7292 127.237 19.2059 127.237 18.6372C127.237 18.0888 127.095 17.4592 126.933 17.2155C126.77 16.9514 126.344 16.6061 126.019 16.4437C125.694 16.2812 125.186 16.139 124.902 16.139C124.617 16.139 124.353 16.0781 124.292 15.9968C124.252 15.8953 124.414 15.225 125.105 13.1127L127.237 12.9909Z" fill="#00EEEE" stroke="#00EEEE" stroke-linejoin="round"/>
<path d="M74.3298 32.5904C75.1625 29.0766 76.6452 22.9631 77.5998 19.0432L79.3465 11.8735H84.7085C89.705 11.8735 90.0705 11.8938 89.9893 12.2188C89.9284 12.4219 89.6034 13.8234 89.2784 15.3263C88.9332 16.8293 87.1661 24.0396 82.0478 44.5737H76.7062C73.7814 44.5737 71.3848 44.5127 71.3848 44.4112C71.3848 44.3299 71.7097 43.0707 72.0956 41.6286C72.4815 40.1866 73.4768 36.1041 74.3298 32.5904Z" fill="#00EEEE" stroke="#00EEEE" stroke-linejoin="round"/>
<path d="M101.282 11.7723C102.317 11.4879 103.861 11.1832 104.694 11.0817C105.527 10.9598 107.172 10.9192 108.35 10.9801C109.528 11.0208 111.071 11.2036 111.803 11.3864C112.534 11.5488 113.671 11.9551 114.341 12.28C115.012 12.605 116.007 13.2549 116.555 13.7424C117.185 14.3111 117.794 15.1235 118.241 16.0375C118.85 17.2561 118.952 17.7233 119.053 19.3887C119.114 20.4449 119.114 21.562 118.911 22.4353L114.89 22.415C112.696 22.415 110.482 22.3338 109.975 22.2729C109.061 22.1307 109.061 22.1307 108.959 21.2167C108.898 20.7089 108.654 20.0184 108.431 19.6934C108.187 19.3481 107.639 18.9013 107.212 18.6779C106.623 18.3732 106.014 18.2717 104.897 18.2717C103.78 18.2717 103.17 18.3732 102.581 18.6779C102.155 18.9013 101.607 19.3481 101.383 19.6934C101.16 20.0184 100.957 20.648 100.957 21.0542C100.936 21.5823 101.078 21.9479 101.444 22.3338C101.728 22.6384 102.358 23.0853 102.866 23.3493C103.374 23.593 104.288 23.9383 104.897 24.1211C105.506 24.3039 107.111 24.6695 108.451 24.9539C109.792 25.2382 111.579 25.7054 112.412 25.9897C113.245 26.274 114.382 26.8021 114.93 27.1677C115.479 27.5333 116.169 28.1832 116.474 28.6301C116.779 29.0769 117.144 29.8081 117.307 30.2549C117.449 30.7018 117.571 31.7985 117.571 32.6922C117.571 33.789 117.429 34.7436 117.124 35.6373C116.88 36.3684 116.251 37.5871 115.702 38.3792C115.154 39.151 114.118 40.3087 113.407 40.9383C112.696 41.568 111.599 42.4007 110.99 42.8069C110.381 43.1928 109.325 43.7412 108.654 44.0255C107.984 44.3099 106.928 44.6755 106.319 44.8583C105.709 45.0411 104.328 45.3254 103.272 45.4879C102.216 45.6504 100.55 45.7926 99.5552 45.7926C98.5803 45.7926 97.0773 45.691 96.2243 45.5692C95.3509 45.4473 93.9088 45.102 93.0152 44.8177C92.1215 44.513 90.8419 43.9037 90.192 43.4568C89.5217 43.01 88.6484 42.2382 88.2422 41.7304C87.836 41.2227 87.3079 40.2681 87.0439 39.5978C86.6986 38.6838 86.5564 37.9324 86.5564 36.6528C86.5361 35.6982 86.597 34.6827 86.8204 33.8093H97.1789V34.7233C97.1789 35.231 97.3007 35.9419 97.4429 36.2872C97.6054 36.6528 98.0116 37.2012 98.3569 37.5058C98.7225 37.8308 99.4943 38.2167 100.083 38.3995C100.794 38.6026 101.464 38.6635 102.155 38.562C102.724 38.5011 103.617 38.237 104.166 37.9933C104.714 37.7699 105.425 37.2621 105.75 36.8965C106.176 36.4091 106.319 36.0435 106.319 35.4341C106.319 34.7842 106.197 34.4999 105.709 34.053C105.364 33.7484 104.572 33.2812 103.922 33.0172C103.292 32.7531 101.525 32.286 100.022 31.9813C98.5194 31.6767 96.6914 31.2298 95.9602 31.0064C95.229 30.7627 94.0916 30.2143 93.4214 29.7878C92.7511 29.3613 91.9184 28.6504 91.5528 28.2036C91.2075 27.777 90.7607 27.0052 90.5779 26.4975C90.4154 25.9897 90.2123 25.1163 90.1514 24.568C90.0904 23.9993 90.1717 22.9228 90.3342 22.1307C90.4967 21.3386 90.9029 20.1199 91.2482 19.3887C91.5731 18.6576 92.3043 17.5202 92.8527 16.8702C93.3808 16.2 94.4166 15.2048 95.1478 14.6564C95.879 14.108 97.1382 13.3565 97.9507 12.9706C98.7428 12.5847 100.266 12.0566 101.282 11.7723Z" fill="#00EEEE" stroke="#00EEEE" stroke-linejoin="round"/>
<path d="M59.4005 10.8784C60.1317 10.8784 61.4521 10.9392 62.3458 11.061C63.2395 11.1626 64.6616 11.4876 65.4943 11.772C66.3269 12.0563 67.5041 12.5851 68.1134 12.9507C68.7227 13.296 69.698 14.047 70.2667 14.6157C70.8556 15.164 71.6475 16.1589 72.0538 16.7886C72.4803 17.4385 73.0497 18.6777 73.3341 19.5308C73.6794 20.5665 73.9021 21.7446 73.963 22.9429C74.0442 24.1615 73.9638 25.4008 73.7403 26.7007C73.5576 27.7567 73.0696 29.5842 72.6837 30.7622C72.2978 31.9402 71.6477 33.4841 71.2618 34.2153C70.8759 34.9465 70.1247 36.1248 69.5763 36.856C69.0279 37.5871 67.8903 38.8461 67.0372 39.6382C66.1842 40.4506 64.7826 41.588 63.9093 42.1567C63.0563 42.7051 61.8786 43.3956 61.3302 43.6597C60.7615 43.9237 59.5832 44.3706 58.6896 44.6753C57.7959 44.9596 56.1504 45.346 55.0333 45.5288C53.6321 45.7319 52.312 45.7926 50.7687 45.7114C49.5297 45.6505 47.7623 45.4065 46.8077 45.1831C45.8532 44.9597 44.3101 44.3709 43.3556 43.9038C42.1573 43.3148 41.2633 42.6846 40.4103 41.8315C39.6792 41.1004 38.8866 40.0449 38.4601 39.1919C38.0539 38.3998 37.5665 37.0387 37.3634 36.145C37.079 34.8655 37.0187 34.0324 37.1202 32.2856C37.2015 30.8844 37.4244 29.2801 37.7696 28.021C38.054 26.9039 38.7043 25.1162 39.212 24.0601C39.7198 23.0039 40.5725 21.5008 41.0802 20.729C41.6083 19.9369 42.8073 18.5156 43.7618 17.561C44.7164 16.6065 46.3203 15.2655 47.3155 14.5952C48.3108 13.925 49.875 13.0721 50.7687 12.7065C51.6623 12.341 53.0844 11.853 53.9171 11.6499C54.7497 11.4266 56.0288 11.1831 56.7599 11.0815C57.491 10.98 58.6693 10.8987 59.4005 10.8784ZM59.5499 18.4204C57.26 17.5245 54.4503 18.8285 52.2003 21.5024C51.503 22.2593 50.8174 23.2106 50.4435 23.9585C50.0492 24.7273 49.5416 25.8985 49.3077 26.6353C47.3869 32.0256 48.3956 37.3048 51.6603 38.5825C55.0304 39.9013 59.5285 36.4567 61.7071 30.8892C62.8779 27.8972 63.1391 24.9015 62.6085 22.5649C62.538 22.1429 62.4596 21.7628 62.3859 21.5415C62.2789 21.2208 62.012 20.7277 61.7218 20.313C61.1786 19.4323 60.4512 18.7731 59.5499 18.4204Z" fill="#00EEEE"/>
<path d="M59.4005 10.8784V10.3782L59.3866 10.3786L59.4005 10.8784ZM62.3458 11.061L62.2782 11.5566L62.2893 11.5578L62.3458 11.061ZM65.4943 11.772L65.6558 11.2988L65.6558 11.2988L65.4943 11.772ZM68.1134 12.9507L67.8561 13.3796L67.8669 13.3857L68.1134 12.9507ZM70.2667 14.6157L69.9132 14.9693C69.9174 14.9735 69.9216 14.9776 69.926 14.9817L70.2667 14.6157ZM72.0538 16.7886L71.6337 17.0597L71.6358 17.0629L72.0538 16.7886ZM73.3341 19.5308L72.8598 19.6889V19.6889L73.3341 19.5308ZM73.963 22.9429L73.4636 22.9683L73.4641 22.9761L73.963 22.9429ZM73.7403 26.7007L74.233 26.786L74.2331 26.7854L73.7403 26.7007ZM72.6837 30.7622L73.1589 30.9179L73.1589 30.9179L72.6837 30.7622ZM71.2618 34.2153L71.704 34.4487L71.704 34.4487L71.2618 34.2153ZM69.5763 36.856L69.9763 37.156L69.9763 37.156L69.5763 36.856ZM67.0372 39.6382L66.697 39.2718L66.6924 39.2761L67.0372 39.6382ZM63.9093 42.1567L64.1797 42.5773L64.1821 42.5757L63.9093 42.1567ZM61.3302 43.6597L61.5408 44.1132L61.5471 44.1102L61.3302 43.6597ZM58.6896 44.6753L58.8412 45.1519L58.8509 45.1485L58.6896 44.6753ZM55.0333 45.5288L55.105 46.0237L55.1141 46.0222L55.0333 45.5288ZM50.7687 45.7114L50.7949 45.2121L50.7932 45.212L50.7687 45.7114ZM46.8077 45.1831L46.6938 45.6699L46.6938 45.6699L46.8077 45.1831ZM43.3556 43.9038L43.135 44.3525L43.1358 44.3529L43.3556 43.9038ZM40.4103 41.8315L40.0567 42.1851L40.0567 42.1851L40.4103 41.8315ZM38.4601 39.1919L38.9073 38.9683L38.905 38.9637L38.4601 39.1919ZM37.3634 36.145L36.8753 36.2535L36.8758 36.2558L37.3634 36.145ZM37.1202 32.2856L37.6194 32.3147L37.6194 32.3146L37.1202 32.2856ZM37.7696 28.021L38.2519 28.1532L38.2542 28.1443L37.7696 28.021ZM39.212 24.0601L38.7614 23.8434L38.7614 23.8434L39.212 24.0601ZM41.0802 20.729L40.6642 20.4516L40.6625 20.4542L41.0802 20.729ZM43.7618 17.561L43.4083 17.2075L43.4083 17.2075L43.7618 17.561ZM47.3155 14.5952L47.0362 14.1805L47.0362 14.1805L47.3155 14.5952ZM50.7687 12.7065L50.5794 12.2438L50.5793 12.2438L50.7687 12.7065ZM53.9171 11.6499L54.0356 12.1358L54.0466 12.1328L53.9171 11.6499ZM56.7599 11.0815L56.6911 10.5863L56.6911 10.5863L56.7599 11.0815ZM59.5499 18.4204L59.7321 17.9548L59.7321 17.9548L59.5499 18.4204ZM52.2003 21.5024L52.568 21.8412C52.5731 21.8357 52.5781 21.8301 52.5829 21.8244L52.2003 21.5024ZM50.4435 23.9585L50.8884 24.1867L50.8907 24.1821L50.4435 23.9585ZM49.3077 26.6353L49.7787 26.8031C49.7807 26.7976 49.7825 26.7921 49.7843 26.7865L49.3077 26.6353ZM51.6603 38.5825L51.478 39.0481L51.4781 39.0481L51.6603 38.5825ZM61.7071 30.8892L62.1728 31.0714H62.1728L61.7071 30.8892ZM62.6085 22.5649L62.1153 22.6473C62.1169 22.6568 62.1188 22.6663 62.1209 22.6757L62.6085 22.5649ZM62.3859 21.5415L62.8602 21.3834L62.8602 21.3833L62.3859 21.5415ZM61.7218 20.313L61.2962 20.5755C61.3013 20.5837 61.3066 20.5917 61.3121 20.5997L61.7218 20.313ZM59.4005 10.8784V11.3784C60.1169 11.3784 61.4135 11.4385 62.2783 11.5565L62.3458 11.061L62.4134 10.5656C61.4907 10.4398 60.1465 10.3784 59.4005 10.3784V10.8784ZM62.3458 11.061L62.2893 11.5578C63.1461 11.6552 64.5329 11.9721 65.3327 12.2451L65.4943 11.772L65.6558 11.2988C64.7902 11.0032 63.3329 10.67 62.4023 10.5642L62.3458 11.061ZM65.4943 11.772L65.3327 12.2451C66.14 12.5209 67.2836 13.036 67.8562 13.3794L68.1134 12.9507L68.3706 12.5219C67.7246 12.1343 66.5138 11.5918 65.6558 11.2988L65.4943 11.772ZM68.1134 12.9507L67.8669 13.3857C68.4329 13.7065 69.3728 14.429 69.9132 14.9693L70.2667 14.6157L70.6203 14.2622C70.0232 13.6651 69.0125 12.8855 68.3599 12.5157L68.1134 12.9507ZM70.2667 14.6157L69.926 14.9817C70.4782 15.4958 71.2446 16.4566 71.6337 17.0597L72.0538 16.7886L72.4739 16.5175C72.0505 15.8612 71.233 14.8322 70.6074 14.2498L70.2667 14.6157ZM72.0538 16.7886L71.6358 17.0629C72.033 17.6681 72.5854 18.8658 72.8598 19.6889L73.3341 19.5308L73.8084 19.3726C73.5141 18.4897 72.9277 17.2089 72.4718 16.5142L72.0538 16.7886ZM73.3341 19.5308L72.8598 19.6889C73.1901 20.68 73.4049 21.8133 73.4636 22.9683L73.963 22.9429L74.4624 22.9175C74.3992 21.676 74.1686 20.4531 73.8084 19.3726L73.3341 19.5308ZM73.963 22.9429L73.4641 22.9761C73.5423 24.1497 73.4653 25.349 73.2476 26.616L73.7403 26.7007L74.2331 26.7854C74.4622 25.4526 74.5461 24.1733 74.4619 22.9096L73.963 22.9429ZM73.7403 26.7007L73.2477 26.6154C73.0703 27.64 72.5897 29.4429 72.2085 30.6066L72.6837 30.7622L73.1589 30.9179C73.5494 29.7255 74.0448 27.8734 74.233 26.786L73.7403 26.7007ZM72.6837 30.7622L72.2085 30.6066C71.8297 31.7631 71.19 33.2802 70.8196 33.982L71.2618 34.2153L71.704 34.4487C72.1055 33.688 72.7659 32.1173 73.1589 30.9179L72.6837 30.7622ZM71.2618 34.2153L70.8196 33.982C70.4471 34.6879 69.7103 35.844 69.1763 36.556L69.5763 36.856L69.9763 37.156C70.5391 36.4056 71.3048 35.2051 71.704 34.4487L71.2618 34.2153ZM69.5763 36.856L69.1763 36.556C68.6478 37.2605 67.5308 38.4975 66.697 39.2718L67.0372 39.6382L67.3774 40.0046C68.2497 39.1946 69.4079 37.9137 69.9763 37.156L69.5763 36.856ZM67.0372 39.6382L66.6924 39.2761C65.8564 40.0723 64.4788 41.1892 63.6365 41.7377L63.9093 42.1567L64.1821 42.5757C65.0865 41.9869 66.5119 40.829 67.382 40.0003L67.0372 39.6382ZM63.9093 42.1567L63.6389 41.7361C62.7913 42.2811 61.6339 42.9585 61.1133 43.2092L61.3302 43.6597L61.5471 44.1102C62.1234 43.8327 63.3214 43.129 64.1797 42.5773L63.9093 42.1567ZM61.3302 43.6597L61.1196 43.2062C60.5752 43.459 59.4167 43.8992 58.5282 44.202L58.6896 44.6753L58.8509 45.1485C59.7498 44.8421 60.9478 44.3885 61.5407 44.1132L61.3302 43.6597ZM58.6896 44.6753L58.538 44.1988C57.6708 44.4748 56.0493 44.8559 54.9526 45.0354L55.0333 45.5288L55.1141 46.0222C56.2514 45.8361 57.921 45.4445 58.8412 45.1518L58.6896 44.6753ZM55.0333 45.5288L54.9616 45.034C53.5942 45.2321 52.307 45.2917 50.7949 45.2121L50.7687 45.7114L50.7424 46.2107C52.3171 46.2936 53.67 46.2316 55.105 46.0236L55.0333 45.5288ZM50.7687 45.7114L50.7932 45.212C49.5806 45.1524 47.8434 44.912 46.9217 44.6963L46.8077 45.1831L46.6938 45.6699C47.6812 45.9011 49.4788 46.1486 50.7441 46.2108L50.7687 45.7114ZM46.8077 45.1831L46.9217 44.6963C46.0131 44.4836 44.506 43.9101 43.5753 43.4547L43.3556 43.9038L43.1358 44.3529C44.1142 44.8317 45.6933 45.4358 46.6938 45.6699L46.8077 45.1831ZM43.3556 43.9038L43.5761 43.4551C42.4222 42.8879 41.5744 42.2886 40.7638 41.478L40.4103 41.8315L40.0567 42.1851C40.9522 43.0806 41.8923 43.7417 43.135 44.3525L43.3556 43.9038ZM40.4103 41.8315L40.7638 41.478C40.0637 40.7779 39.3057 39.7651 38.9073 38.9683L38.4601 39.1919L38.0129 39.4155C38.4675 40.3246 39.2946 41.4229 40.0567 42.1851L40.4103 41.8315ZM38.4601 39.1919L38.905 38.9637C38.5189 38.211 38.0454 36.8896 37.851 36.0342L37.3634 36.145L36.8758 36.2558C37.0876 37.1878 37.5888 38.5886 38.0152 39.4201L38.4601 39.1919ZM37.3634 36.145L37.8515 36.0366C37.5793 34.8118 37.5199 34.0264 37.6194 32.3147L37.1202 32.2856L36.6211 32.2566C36.5175 34.0383 36.5788 34.9191 36.8753 36.2535L37.3634 36.145ZM37.1202 32.2856L37.6194 32.3146C37.6993 30.9374 37.9184 29.3695 38.2518 28.1532L37.7696 28.021L37.2874 27.8888C36.9305 29.1908 36.7037 30.8314 36.6211 32.2567L37.1202 32.2856ZM37.7696 28.021L38.2542 28.1443C38.5303 27.0597 39.1691 25.3032 39.6627 24.2767L39.212 24.0601L38.7614 23.8434C38.2394 24.9292 37.5777 26.7482 37.2851 27.8977L37.7696 28.021ZM39.212 24.0601L39.6626 24.2767C40.1615 23.2392 41.0033 21.7556 41.4979 21.0038L41.0802 20.729L40.6625 20.4542C40.1416 21.2459 39.2781 22.7686 38.7614 23.8434L39.212 24.0601ZM41.0802 20.729L41.4962 21.0064C42.0008 20.2495 43.1763 18.8536 44.1154 17.9146L43.7618 17.561L43.4083 17.2075C42.4382 18.1776 41.2157 19.6243 40.6642 20.4516L41.0802 20.729ZM43.7618 17.561L44.1154 17.9146C45.0505 16.9795 46.6299 15.6598 47.5948 15.0099L47.3155 14.5952L47.0362 14.1805C46.0108 14.8711 44.3823 16.2335 43.4083 17.2075L43.7618 17.561ZM47.3155 14.5952L47.5948 15.0099C48.5674 14.355 50.1015 13.5197 50.958 13.1693L50.7687 12.7065L50.5793 12.2438C49.6485 12.6246 48.0542 13.495 47.0362 14.1805L47.3155 14.5952ZM50.7687 12.7065L50.958 13.1693C51.8368 12.8098 53.2343 12.3311 54.0356 12.1357L53.9171 11.6499L53.7986 11.1641C52.9345 11.3749 51.4879 11.8721 50.5794 12.2438L50.7687 12.7065ZM53.9171 11.6499L54.0466 12.1328C54.8559 11.9158 56.1142 11.676 56.8287 11.5768L56.7599 11.0815L56.6911 10.5863C55.9434 10.6902 54.6436 10.9373 53.7876 11.167L53.9171 11.6499ZM56.7599 11.0815L56.8287 11.5768C57.5364 11.4785 58.6954 11.3982 59.4144 11.3782L59.4005 10.8784L59.3866 10.3786C58.6432 10.3993 57.4457 10.4815 56.6911 10.5863L56.7599 11.0815ZM59.5499 18.4204L59.7321 17.9548C57.1354 16.9388 54.1131 18.4526 51.8177 21.1805L52.2003 21.5024L52.5829 21.8244C54.7874 19.2045 57.3845 18.1101 59.3677 18.886L59.5499 18.4204ZM52.2003 21.5024L51.8326 21.1637C51.1122 21.9456 50.3962 22.935 49.9963 23.7349L50.4435 23.9585L50.8907 24.1821C51.2386 23.4862 51.8939 22.573 52.568 21.8412L52.2003 21.5024ZM50.4435 23.9585L49.9986 23.7303C49.5959 24.5155 49.0759 25.7131 48.8312 26.484L49.3077 26.6353L49.7843 26.7865C50.0073 26.0839 50.5025 24.9391 50.8884 24.1867L50.4435 23.9585ZM49.3077 26.6353L48.8367 26.4674C47.8517 29.2317 47.6085 31.9907 48.0487 34.2468C48.4872 36.4945 49.6272 38.3237 51.478 39.0481L51.6603 38.5825L51.8425 38.1169C50.4287 37.5636 49.4319 36.1143 49.0302 34.0553C48.6301 32.0048 48.8429 29.4291 49.7787 26.8031L49.3077 26.6353ZM51.6603 38.5825L51.4781 39.0481C53.3889 39.7959 55.5412 39.165 57.4345 37.7152C59.3365 36.2587 61.0558 33.9257 62.1728 31.0714L61.7071 30.8892L61.2415 30.707C60.1798 33.4201 58.5608 35.5932 56.8266 36.9212C55.0837 38.2559 53.3018 38.6879 51.8425 38.1169L51.6603 38.5825ZM61.7071 30.8892L62.1728 31.0714C63.3727 28.0048 63.6529 24.9063 63.0961 22.4542L62.6085 22.5649L62.1209 22.6757C62.6253 24.8967 62.3831 27.7896 61.2415 30.707L61.7071 30.8892ZM62.6085 22.5649L63.1017 22.4825C63.0312 22.0605 62.9476 21.6457 62.8602 21.3834L62.3859 21.5415L61.9115 21.6996C61.9716 21.8799 62.0448 22.2252 62.1153 22.6473L62.6085 22.5649ZM62.3859 21.5415L62.8602 21.3833C62.7323 21 62.4367 20.4626 62.1315 20.0263L61.7218 20.313L61.3121 20.5997C61.5872 20.9928 61.8255 21.4417 61.9115 21.6997L62.3859 21.5415ZM61.7218 20.313L62.1474 20.0505C61.5572 19.0937 60.7509 18.3534 59.7321 17.9548L59.5499 18.4204L59.3677 18.886C60.1515 19.1927 60.7999 19.7708 61.2962 20.5755L61.7218 20.313Z" fill="#00EEEE"/>
<path d="M23.451 11.5285C24.0603 11.3457 25.0149 11.1426 25.5836 11.041C26.132 10.9598 27.5538 10.9192 28.7318 10.9598C30.1941 11.0004 31.2706 11.1629 32.1846 11.4675C32.9158 11.691 33.9516 12.1987 34.5203 12.5846C35.0687 12.9502 35.7796 13.6205 36.0842 14.047C36.3889 14.4735 36.8357 15.3266 37.0795 15.9359C37.3232 16.5452 37.5466 17.7435 37.6075 18.5763C37.6685 19.5309 37.5872 20.8308 37.3841 22.0291C37.2013 23.0852 35.9014 28.6097 31.8799 44.5942L20.8106 44.5739L20.9122 44.127C20.9731 43.863 21.7449 40.6945 22.6589 37.0589C23.5526 33.4233 24.6087 29.1175 24.9946 27.4723C25.4008 25.685 25.6852 23.9383 25.6852 23.1462C25.6852 21.9885 25.6243 21.7447 25.0962 21.176C24.7915 20.8104 24.1619 20.3839 23.7354 20.2621C23.3088 20.1199 22.4964 19.998 21.9277 19.998C21.2778 19.998 20.5466 20.1808 19.8967 20.4855C19.3483 20.7292 18.5358 21.3385 18.1296 21.7854C17.7031 22.2525 17.1344 23.0649 16.8704 23.6133C16.6063 24.1414 16.2001 25.1163 15.9767 25.7865C15.7736 26.4568 14.6159 30.9658 11.2646 44.5739H5.88232C2.91697 44.5739 0.5 44.513 0.5 44.4317C0.5 44.3302 1.33274 40.8367 2.34827 36.6527C3.3638 32.4687 4.92772 26.0709 5.80108 22.4353C6.69474 18.7997 7.68996 14.9407 8.62425 11.8738H13.7019C17.6219 11.8738 18.7796 11.9347 18.7796 12.1378C18.7796 12.2597 18.5968 13.0721 18.3734 13.9048C18.1499 14.7376 17.9671 15.4687 17.9671 15.5297C17.9671 15.5906 18.3937 15.1438 18.9217 14.5345C19.4701 13.9251 20.445 13.0721 21.1153 12.6456C21.7855 12.1987 22.8417 11.7113 23.451 11.5285Z" fill="#00EEEE" stroke="#00EEEE" stroke-linejoin="round"/>
<path d="M130.549 1.94205C130.793 1.67802 131.443 1.25149 132.012 0.987455C132.581 0.723417 133.393 0.5 133.84 0.5C134.287 0.5 135.018 0.682796 135.465 0.885902C135.911 1.0687 136.521 1.53584 136.846 1.88112C137.15 2.24671 137.496 2.91697 137.618 3.40442C137.739 3.87157 137.78 4.72461 137.719 5.273C137.658 5.8417 137.394 6.69474 137.13 7.20251C136.866 7.73059 136.277 8.38053 135.79 8.72581C134.998 9.29451 134.774 9.33513 133.23 9.33513C131.667 9.33513 131.484 9.29451 130.793 8.72581C130.367 8.40084 129.839 7.7509 129.615 7.30406C129.351 6.7963 129.209 6.10574 129.209 5.47611C129.209 4.90741 129.412 4.01374 129.656 3.44504C129.9 2.89665 130.306 2.20609 130.549 1.94205Z" fill="#00EEEE" stroke="#00EEEE" stroke-linejoin="round"/>
<path d="M80.7077 6.08542C80.9108 5.19176 81.2967 3.56691 81.5405 2.49044L81.967 0.5L92.8129 0.520311L92.1629 3.30287C91.7973 4.82616 91.3911 6.6135 90.9849 8.42115H85.562C80.4843 8.42115 80.1187 8.40084 80.2203 8.05556C80.2609 7.87276 80.4843 6.97913 80.7077 6.08548L80.7077 6.08542Z" fill="#00EEEE" stroke="#00EEEE" stroke-linejoin="round"/>
<path d="M157.094 12.5438C158.333 12.6048 159.044 12.7265 159.633 13.0311C160.08 13.2546 160.73 13.7622 161.075 14.1278C161.4 14.5136 161.785 15.1433 161.907 15.5292C162.049 15.915 162.171 16.4229 162.212 16.6464C162.273 16.8901 162.497 16.4635 162.802 15.5292C163.269 14.1691 163.39 13.9862 163.918 13.8847C164.243 13.8034 165.36 13.7419 166.376 13.7216C167.41 13.7216 168.261 13.742 168.265 13.8026C168.265 13.8636 166.701 18.5964 164.792 24.3036C162.903 30.031 161.075 35.7786 160.729 37.0585C160.405 38.3381 160.181 39.5573 160.242 39.7401C160.303 39.9431 160.486 40.146 160.648 40.2069C160.811 40.2678 161.257 40.1868 161.603 40.0448C161.968 39.8823 162.638 39.3129 163.105 38.7645C163.573 38.2163 164.202 37.3839 164.527 36.8964C164.851 36.4103 165.156 36.0249 165.218 36.0429C165.279 36.0429 165.523 36.2466 165.787 36.5106C166.031 36.7542 166.233 37.0583 166.233 37.1601C166.233 37.2616 165.604 38.2773 164.853 39.3944C164.101 40.5115 162.862 42.0758 162.07 42.8476C161.197 43.7411 160.181 44.5122 159.43 44.8778C158.658 45.2637 157.805 45.5081 157.094 45.5487C156.281 45.5893 155.794 45.5079 155.266 45.2235C154.88 45.0203 154.352 44.4722 154.108 44.0458C153.783 43.4771 153.642 42.9078 153.642 42.0751C153.642 41.3439 153.906 40.0444 154.332 38.5214C154.718 37.2216 155.449 34.9469 155.957 33.5048C156.444 32.0627 156.85 30.8433 156.83 30.8026C156.808 30.7849 156.362 31.4747 155.835 32.3261C155.327 33.1994 154.21 34.8649 153.377 36.0429C152.524 37.2209 151.245 38.8664 150.493 39.6991C149.742 40.5318 148.564 41.7097 147.894 42.2987C147.203 42.908 146.126 43.7007 145.517 44.0663C144.907 44.452 143.994 44.8981 143.486 45.081C142.979 45.2434 141.983 45.3856 141.252 45.3856C140.521 45.3856 139.525 45.2434 139.018 45.081C138.51 44.8981 137.759 44.411 137.332 44.0048C136.926 43.5986 136.377 42.7866 136.113 42.2382C135.707 41.3242 135.666 40.8973 135.666 38.0741C135.666 35.6981 135.748 34.6015 136.032 33.6063C136.235 32.8752 136.621 31.6563 136.926 30.8642C137.21 30.072 137.941 28.4469 138.551 27.2079C139.14 25.9691 140.256 24.101 141.008 23.0448C141.759 21.9888 143.242 20.2619 144.298 19.1854C145.354 18.1294 147.101 16.647 148.157 15.8954C149.213 15.1642 150.717 14.2503 151.509 13.8847C152.301 13.5191 153.479 13.0516 154.149 12.8485C155.002 12.6049 155.875 12.5033 157.094 12.5438ZM156.789 14.8183C156.099 14.7371 155.448 14.8187 154.758 15.0624C154.189 15.2656 153.154 15.8546 152.423 16.3622C151.692 16.87 150.472 17.967 149.721 18.7997C148.969 19.6325 147.812 21.0747 147.162 22.0292C146.512 22.9837 145.517 24.669 144.948 25.786C144.492 26.6829 143.956 27.9204 143.605 28.8358C141.157 33.9746 140.781 38.6736 142.925 39.9569C143.416 40.2507 144.002 40.3403 144.654 40.2538C144.816 40.2567 144.974 40.2489 145.11 40.2274C145.496 40.1462 146.228 39.9026 146.735 39.6386C147.049 39.4882 147.655 39.0203 148.327 38.4364C149.554 37.4733 150.824 36.1674 152.032 34.5985C152.407 34.1585 152.749 33.7453 153.012 33.4032C153.824 32.3471 154.982 30.6809 155.591 29.706C156.2 28.7108 157.134 27.0255 157.683 25.9491C158.231 24.8524 158.942 23.2276 159.247 22.3339C159.674 21.0949 159.815 20.3228 159.815 19.0839C159.815 17.8653 159.714 17.2559 159.43 16.6669C159.206 16.2201 158.739 15.6517 158.414 15.3876C158.048 15.1032 157.398 14.8792 156.789 14.8183Z" fill="#00EEEE"/>
<path d="M157.094 12.5438L157.118 12.0444L157.11 12.0441L157.094 12.5438ZM159.633 13.0311L159.403 13.4753L159.409 13.4784L159.633 13.0311ZM161.075 14.1278L161.458 13.8058C161.452 13.7985 161.445 13.7914 161.439 13.7845L161.075 14.1278ZM161.907 15.5292L161.43 15.6799C161.433 15.6873 161.435 15.6947 161.438 15.702L161.907 15.5292ZM162.212 16.6464L161.72 16.7359C161.722 16.7465 161.724 16.7571 161.727 16.7677L162.212 16.6464ZM162.802 15.5292L162.329 15.3668L162.326 15.3742L162.802 15.5292ZM163.918 13.8847L164.012 14.3757C164.021 14.3739 164.03 14.372 164.039 14.3697L163.918 13.8847ZM166.376 13.7216V13.2215L166.366 13.2217L166.376 13.7216ZM168.265 13.8026H168.765C168.765 13.7926 168.764 13.7826 168.764 13.7725L168.265 13.8026ZM164.792 24.3036L164.318 24.145L164.317 24.147L164.792 24.3036ZM160.729 37.0585L160.247 36.9282L160.245 36.9354L160.729 37.0585ZM160.242 39.7401L160.721 39.5961C160.72 39.5914 160.718 39.5867 160.717 39.582L160.242 39.7401ZM160.648 40.2069L160.473 40.6751L160.473 40.6752L160.648 40.2069ZM161.603 40.0448L161.793 40.5074L161.806 40.5017L161.603 40.0448ZM163.105 38.7645L163.486 39.0888L163.486 39.0888L163.105 38.7645ZM164.527 36.8964L164.943 37.1738L164.943 37.1737L164.527 36.8964ZM165.218 36.0429L165.079 36.5232C165.124 36.5362 165.171 36.5429 165.218 36.5429V36.0429ZM165.787 36.5106L166.141 36.1571L166.141 36.1571L165.787 36.5106ZM166.233 37.1601H166.733L166.733 37.1588L166.233 37.1601ZM164.853 39.3944L165.267 39.6735L165.267 39.6735L164.853 39.3944ZM162.07 42.8476L161.721 42.4893L161.713 42.4981L162.07 42.8476ZM159.43 44.8778L159.211 44.4282L159.206 44.4306L159.43 44.8778ZM157.094 45.5487L157.119 46.0481L157.122 46.0479L157.094 45.5487ZM155.266 45.2235L155.503 44.7833L155.499 44.7812L155.266 45.2235ZM154.108 44.0458L153.674 44.2939L153.674 44.2939L154.108 44.0458ZM153.642 42.0751L153.142 42.075V42.0751H153.642ZM154.332 38.5214L153.853 38.3791L153.851 38.3866L154.332 38.5214ZM155.957 33.5048L156.429 33.6709L156.431 33.6649L155.957 33.5048ZM156.83 30.8026L157.277 30.579C157.245 30.5153 157.2 30.4592 157.145 30.4143L156.83 30.8026ZM155.835 32.3261L155.41 32.0628L155.403 32.0748L155.835 32.3261ZM153.377 36.0429L153.782 36.3361L153.785 36.3315L153.377 36.0429ZM150.493 39.6991L150.864 40.0341L150.864 40.0341L150.493 39.6991ZM147.894 42.2987L147.563 41.9232L147.563 41.9238L147.894 42.2987ZM145.517 44.0663L145.259 43.6374L145.249 43.6439L145.517 44.0663ZM143.486 45.081L143.639 45.5572C143.644 45.5553 143.65 45.5534 143.656 45.5514L143.486 45.081ZM141.252 45.3856V45.8856H141.252L141.252 45.3856ZM139.018 45.081L138.848 45.5514C138.854 45.5534 138.859 45.5553 138.865 45.5572L139.018 45.081ZM137.332 44.0048L136.978 44.3584L136.987 44.3669L137.332 44.0048ZM136.113 42.2382L135.656 42.4412C135.658 42.4459 135.661 42.4505 135.663 42.4551L136.113 42.2382ZM135.666 38.0741L135.166 38.0741V38.0741H135.666ZM136.032 33.6063L136.513 33.7437L136.514 33.7402L136.032 33.6063ZM136.926 30.8642L137.393 31.0437L137.396 31.0331L136.926 30.8642ZM138.551 27.2079L138.999 27.4286L139.002 27.4226L138.551 27.2079ZM141.008 23.0448L140.6 22.7549L140.6 22.755L141.008 23.0448ZM144.298 19.1854L143.944 18.8319L143.941 18.8353L144.298 19.1854ZM148.157 15.8954L147.873 15.4843L147.867 15.488L148.157 15.8954ZM151.509 13.8847L151.299 13.4307V13.4307L151.509 13.8847ZM154.149 12.8485L154.012 12.3677L154.004 12.37L154.149 12.8485ZM156.789 14.8183L156.731 15.3149L156.739 15.3158L156.789 14.8183ZM154.758 15.0624L154.591 14.5909L154.59 14.5915L154.758 15.0624ZM152.423 16.3622L152.138 15.9515L152.138 15.9515L152.423 16.3622ZM149.721 18.7997L149.35 18.4647L149.349 18.4647L149.721 18.7997ZM147.162 22.0292L146.749 21.7478L146.749 21.7478L147.162 22.0292ZM144.948 25.786L144.503 25.5592L144.503 25.5592L144.948 25.786ZM143.605 28.8358L144.057 29.0509C144.062 29.0391 144.068 29.027 144.072 29.0148L143.605 28.8358ZM142.925 39.9569L142.668 40.3859L142.668 40.386L142.925 39.9569ZM144.654 40.2538L144.663 39.7539C144.638 39.7534 144.613 39.7549 144.589 39.7581L144.654 40.2538ZM145.11 40.2274L145.188 40.7213C145.197 40.72 145.205 40.7185 145.213 40.7167L145.11 40.2274ZM146.735 39.6386L146.519 39.1878C146.514 39.1901 146.509 39.1925 146.505 39.195L146.735 39.6386ZM148.327 38.4364L148.018 38.0431C148.012 38.0483 148.005 38.0536 147.999 38.059L148.327 38.4364ZM152.032 34.5985L151.652 34.2742C151.646 34.2805 151.641 34.2869 151.636 34.2935L152.032 34.5985ZM153.012 33.4032L153.408 33.7081L153.408 33.7081L153.012 33.4032ZM155.591 29.706L156.015 29.971L156.017 29.967L155.591 29.706ZM157.683 25.9491L158.128 26.1761L158.13 26.1727L157.683 25.9491ZM159.247 22.3339L158.774 22.1711L158.774 22.1725L159.247 22.3339ZM159.815 19.0839L160.315 19.0839V19.0839H159.815ZM159.43 16.6669L159.88 16.4495L159.877 16.4433L159.43 16.6669ZM158.414 15.3876L158.729 14.9995L158.721 14.9929L158.414 15.3876ZM157.094 12.5438L157.069 13.0432C158.299 13.1037 158.916 13.2236 159.403 13.4753L159.633 13.0311L159.863 12.587C159.171 12.2294 158.366 12.1058 157.118 12.0444L157.094 12.5438ZM159.633 13.0311L159.409 13.4784C159.795 13.6712 160.399 14.1403 160.712 14.4711L161.075 14.1278L161.439 13.7845C161.061 13.3842 160.364 12.838 159.856 12.5839L159.633 13.0311ZM161.075 14.1278L160.693 14.4499C160.993 14.8063 161.335 15.3785 161.43 15.6799L161.907 15.5292L162.384 15.3785C162.235 14.9081 161.807 14.221 161.458 13.8058L161.075 14.1278ZM161.907 15.5292L161.438 15.702C161.568 16.055 161.683 16.534 161.72 16.7359L162.212 16.6464L162.704 16.5569C162.659 16.3118 162.531 15.775 162.376 15.3563L161.907 15.5292ZM162.212 16.6464L161.727 16.7677C161.74 16.8204 161.783 16.9823 161.934 17.1003C162.025 17.1713 162.142 17.2159 162.271 17.2138C162.39 17.2118 162.483 17.1709 162.542 17.1364C162.648 17.0734 162.716 16.9863 162.749 16.9404C162.79 16.8846 162.826 16.8228 162.858 16.7628C162.981 16.5296 163.124 16.1549 163.277 15.6842L162.802 15.5292L162.326 15.3742C162.175 15.8378 162.054 16.1435 161.973 16.2963C161.954 16.3327 161.943 16.3491 161.941 16.3523C161.931 16.3655 161.96 16.3184 162.032 16.2757C162.073 16.2514 162.15 16.2156 162.255 16.2139C162.369 16.2121 162.473 16.2519 162.551 16.313C162.62 16.3676 162.656 16.4278 162.672 16.459C162.688 16.4919 162.695 16.5169 162.697 16.5251L162.212 16.6464ZM162.802 15.5292L163.275 15.6915C163.515 14.99 163.642 14.6768 163.751 14.5154C163.794 14.4525 163.819 14.4361 163.833 14.4281C163.856 14.4154 163.9 14.3974 164.012 14.3757L163.918 13.8847L163.823 13.3937C163.673 13.4227 163.503 13.4657 163.34 13.5583C163.168 13.6557 163.035 13.7891 162.923 13.9546C162.723 14.25 162.555 14.7083 162.329 15.3669L162.802 15.5292ZM163.918 13.8847L164.039 14.3697C164.149 14.3423 164.461 14.3081 164.919 14.2793C165.358 14.2517 165.884 14.2315 166.386 14.2215L166.376 13.7216L166.366 13.2217C165.853 13.2319 165.312 13.2526 164.857 13.2813C164.421 13.3086 164.012 13.3458 163.797 13.3996L163.918 13.8847ZM166.376 13.7216V14.2216C166.891 14.2216 167.355 14.2267 167.688 14.239C167.856 14.2453 167.981 14.253 168.06 14.2615C168.102 14.2661 168.112 14.269 168.104 14.267C168.104 14.267 168.069 14.259 168.023 14.2353C168.001 14.2235 167.952 14.1957 167.902 14.1439C167.85 14.0898 167.775 13.9852 167.766 13.8327L168.265 13.8026L168.764 13.7725C168.754 13.6163 168.678 13.5079 168.622 13.4502C168.569 13.3948 168.514 13.3634 168.485 13.3482C168.426 13.3175 168.371 13.3029 168.345 13.2964C168.286 13.2817 168.221 13.2731 168.167 13.2673C168.053 13.2549 167.899 13.2462 167.725 13.2397C167.373 13.2267 166.894 13.2216 166.376 13.2216V13.7216ZM168.265 13.8026H167.765C167.765 13.7544 167.772 13.7168 167.772 13.7153C167.774 13.7047 167.776 13.6968 167.777 13.6942C167.778 13.6884 167.779 13.6857 167.778 13.6887C167.777 13.6938 167.774 13.7047 167.768 13.7232C167.757 13.7592 167.74 13.8134 167.717 13.8859C167.671 14.0305 167.603 14.2413 167.515 14.5116C167.339 15.0521 167.084 15.8269 166.77 16.7788C166.14 18.6824 165.272 21.2918 164.318 24.145L164.792 24.3036L165.266 24.4622C166.221 21.6082 167.089 18.9976 167.719 17.0927C168.034 16.1403 168.289 15.3639 168.466 14.8214C168.554 14.5504 168.623 14.3368 168.67 14.1886C168.694 14.1148 168.712 14.0554 168.725 14.0126C168.732 13.9917 168.737 13.9718 168.742 13.9551C168.744 13.9472 168.747 13.9359 168.75 13.9236C168.752 13.9177 168.754 13.9073 168.756 13.8945C168.757 13.891 168.765 13.8518 168.765 13.8026H168.265ZM164.792 24.3036L164.317 24.147C162.43 29.8688 160.597 35.6319 160.247 36.9282L160.729 37.0585L161.212 37.1888C161.553 35.9253 163.376 30.1931 165.267 24.4602L164.792 24.3036ZM160.729 37.0585L160.245 36.9354C160.08 37.5842 159.94 38.2202 159.849 38.721C159.804 38.9705 159.769 39.1931 159.75 39.3698C159.74 39.4575 159.734 39.5418 159.732 39.6164C159.731 39.6713 159.731 39.7868 159.768 39.8982L160.242 39.7401L160.717 39.582C160.738 39.6478 160.731 39.6852 160.732 39.6334C160.733 39.6013 160.736 39.5504 160.744 39.4781C160.76 39.3348 160.79 39.1383 160.833 38.9002C160.919 38.4258 161.054 37.8124 161.214 37.1816L160.729 37.0585ZM160.242 39.7401L159.763 39.8842C159.818 40.0673 159.921 40.2305 160.032 40.357C160.14 40.4799 160.291 40.6068 160.473 40.6751L160.648 40.2069L160.824 39.7388C160.838 39.7439 160.838 39.7462 160.825 39.7372C160.814 39.7288 160.799 39.7153 160.783 39.6966C160.747 39.6557 160.727 39.616 160.721 39.5961L160.242 39.7401ZM160.648 40.2069L160.473 40.6752C160.602 40.7234 160.735 40.7288 160.826 40.7272C160.929 40.7253 161.037 40.7128 161.142 40.6946C161.352 40.6582 161.585 40.5927 161.793 40.5072L161.603 40.0448L161.412 39.5824C161.275 39.639 161.112 39.6849 160.972 39.7093C160.901 39.7215 160.846 39.7266 160.809 39.7273C160.76 39.7282 160.776 39.7209 160.824 39.7387L160.648 40.2069ZM161.603 40.0448L161.806 40.5017C162.057 40.3902 162.36 40.1683 162.64 39.9301C162.93 39.6835 163.233 39.3854 163.486 39.0888L163.105 38.7645L162.725 38.4403C162.51 38.692 162.245 38.9528 161.992 39.1686C161.728 39.3929 161.514 39.537 161.399 39.5879L161.603 40.0448ZM163.105 38.7645L163.486 39.0888C163.965 38.5271 164.606 37.6791 164.943 37.1738L164.527 36.8964L164.111 36.619C163.798 37.0886 163.18 37.9054 162.725 38.4403L163.105 38.7645ZM164.527 36.8964L164.943 37.1737C165.1 36.9381 165.249 36.7332 165.361 36.5936C165.418 36.5219 165.457 36.4787 165.478 36.4586C165.49 36.4467 165.482 36.4567 165.458 36.4726C165.446 36.4803 165.414 36.5007 165.365 36.5173C165.322 36.532 165.213 36.562 165.079 36.5232L165.218 36.0429L165.357 35.5625C165.215 35.5215 165.096 35.5524 165.042 35.571C164.982 35.5915 164.936 35.6188 164.909 35.6363C164.855 35.6718 164.811 35.7127 164.78 35.742C164.716 35.8043 164.648 35.8844 164.581 35.9676C164.444 36.1377 164.278 36.3686 164.111 36.619L164.527 36.8964ZM165.218 36.0429V36.5429C165.156 36.5429 165.11 36.5309 165.088 36.5242C165.063 36.5169 165.046 36.5091 165.037 36.5051C165.021 36.4975 165.015 36.4929 165.022 36.4976C165.036 36.5064 165.064 36.527 165.108 36.5634C165.194 36.6344 165.309 36.7398 165.434 36.8642L165.787 36.5106L166.141 36.1571C166.001 36.0174 165.862 35.889 165.745 35.7921C165.687 35.7445 165.626 35.6977 165.568 35.6601C165.54 35.6416 165.503 35.6189 165.461 35.5991C165.433 35.5864 165.34 35.5429 165.218 35.5429V36.0429ZM165.787 36.5106L165.434 36.8641C165.533 36.9636 165.624 37.0764 165.688 37.1698C165.72 37.2169 165.74 37.251 165.749 37.2698C165.753 37.2793 165.752 37.2781 165.749 37.2679C165.747 37.2628 165.734 37.2225 165.733 37.1613L166.233 37.1601L166.733 37.1588C166.733 37.0097 166.672 36.882 166.647 36.83C166.61 36.7556 166.564 36.6794 166.515 36.6073C166.416 36.4623 166.285 36.3012 166.141 36.1571L165.787 36.5106ZM166.233 37.1601H165.733C165.733 37.106 165.743 37.066 165.746 37.0528C165.75 37.0355 165.754 37.0238 165.756 37.02C165.758 37.0126 165.759 37.0136 165.753 37.0264C165.741 37.0511 165.72 37.0921 165.687 37.1516C165.621 37.2689 165.524 37.4329 165.4 37.6334C165.152 38.033 164.811 38.5607 164.438 39.1153L164.853 39.3944L165.267 39.6735C165.646 39.1111 165.995 38.5724 166.25 38.1594C166.377 37.9537 166.484 37.7749 166.56 37.6383C166.598 37.5708 166.632 37.5071 166.657 37.4524C166.67 37.4255 166.684 37.3932 166.696 37.3592C166.702 37.3433 166.733 37.2613 166.733 37.1601H166.233ZM164.853 39.3944L164.438 39.1153C163.697 40.2159 162.48 41.75 161.721 42.4894L162.07 42.8476L162.419 43.2057C163.245 42.4015 164.505 40.8071 165.267 39.6735L164.853 39.3944ZM162.07 42.8476L161.713 42.4981C160.865 43.3657 159.895 44.0956 159.211 44.4282L159.43 44.8778L159.648 45.3274C160.468 44.9288 161.529 44.1166 162.428 43.197L162.07 42.8476ZM159.43 44.8778L159.206 44.4306C158.483 44.7922 157.696 45.0135 157.065 45.0495L157.094 45.5487L157.122 46.0479C157.913 46.0027 158.833 45.7353 159.653 45.325L159.43 44.8778ZM157.094 45.5487L157.069 45.0494C156.311 45.0872 155.924 45.0099 155.503 44.7833L155.266 45.2235L155.029 45.6638C155.664 46.0058 156.252 46.0914 157.119 46.0481L157.094 45.5487ZM155.266 45.2235L155.499 44.7812C155.371 44.7141 155.185 44.5674 154.991 44.3691C154.801 44.1741 154.638 43.964 154.542 43.7977L154.108 44.0458L153.674 44.2939C153.823 44.5539 154.045 44.8311 154.276 45.0676C154.504 45.3007 154.774 45.5297 155.033 45.6659L155.266 45.2235ZM154.108 44.0458L154.543 43.7977C154.269 43.3185 154.142 42.8384 154.142 42.0751H153.642H153.142C153.142 42.9772 153.298 43.6357 153.674 44.2939L154.108 44.0458ZM153.642 42.0751L154.142 42.0751C154.142 41.4201 154.387 40.1804 154.814 38.6562L154.332 38.5214L153.851 38.3866C153.424 39.9083 153.142 41.2677 153.142 42.075L153.642 42.0751ZM154.332 38.5214L154.811 38.6637C155.195 37.3712 155.924 35.1044 156.429 33.6708L155.957 33.5048L155.485 33.3387C154.975 34.7893 154.241 37.0719 153.853 38.3791L154.332 38.5214ZM155.957 33.5048L156.431 33.6649C156.674 32.9438 156.899 32.2762 157.059 31.7832C157.14 31.5373 157.205 31.3314 157.25 31.183C157.272 31.1098 157.29 31.0447 157.303 30.9936C157.309 30.9694 157.317 30.9389 157.322 30.9084C157.324 30.8943 157.328 30.8679 157.33 30.8363C157.331 30.8206 157.332 30.7932 157.329 30.7598C157.326 30.7346 157.319 30.6615 157.277 30.579L156.83 30.8026L156.383 31.0262C156.342 30.945 156.335 30.8738 156.333 30.851C156.33 30.82 156.331 30.7956 156.331 30.7835C156.333 30.7589 156.336 30.7419 156.336 30.7393C156.337 30.7318 156.338 30.7331 156.334 30.7489C156.326 30.778 156.313 30.8261 156.292 30.8954C156.251 31.0321 156.188 31.2289 156.109 31.4731C155.95 31.9605 155.727 32.6237 155.483 33.3447L155.957 33.5048ZM156.83 30.8026L157.145 30.4143C157.013 30.3074 156.866 30.2941 156.768 30.306C156.681 30.3167 156.617 30.3479 156.589 30.3633C156.531 30.3948 156.492 30.4311 156.48 30.4419C156.45 30.4703 156.426 30.499 156.415 30.5125C156.388 30.5453 156.359 30.5857 156.331 30.6256C156.272 30.7087 156.194 30.8259 156.103 30.9656C155.92 31.2467 155.674 31.6355 155.41 32.0629L155.835 32.3261L156.26 32.5893C156.523 32.1653 156.764 31.7835 156.941 31.5113C157.03 31.3744 157.101 31.2693 157.148 31.2013C157.173 31.1658 157.187 31.1485 157.191 31.1436C157.195 31.1384 157.184 31.1532 157.162 31.1731C157.155 31.1795 157.12 31.2128 157.065 31.2428C157.038 31.2574 156.976 31.2881 156.889 31.2986C156.793 31.3104 156.646 31.2973 156.515 31.1909L156.83 30.8026ZM155.835 32.3261L155.403 32.0748C154.907 32.928 153.8 34.5785 152.969 35.7543L153.377 36.0429L153.785 36.3315C154.62 35.1512 155.748 33.4708 156.267 32.5774L155.835 32.3261ZM153.377 36.0429L152.972 35.7496C152.123 36.9222 150.856 38.551 150.122 39.3641L150.493 39.6991L150.864 40.0341C151.634 39.1817 152.925 37.5195 153.782 36.3361L153.377 36.0429ZM150.493 39.6991L150.122 39.3641C149.38 40.1859 148.216 41.3495 147.563 41.9232L147.894 42.2987L148.224 42.6743C148.912 42.0698 150.103 40.8776 150.864 40.0341L150.493 39.6991ZM147.894 42.2987L147.563 41.9238C146.892 42.5158 145.839 43.2897 145.259 43.6376L145.517 44.0663L145.774 44.4951C146.413 44.1117 147.514 43.3003 148.224 42.6736L147.894 42.2987ZM145.517 44.0663L145.249 43.6439C144.668 44.0121 143.787 44.4413 143.317 44.6105L143.486 45.081L143.656 45.5514C144.201 45.3549 145.147 44.8919 145.784 44.4887L145.517 44.0663ZM143.486 45.081L143.334 44.6047C142.886 44.7481 141.944 44.8856 141.252 44.8856L141.252 45.3856L141.252 45.8856C142.022 45.8856 143.071 45.7388 143.639 45.5572L143.486 45.081ZM141.252 45.3856V44.8856C140.56 44.8856 139.618 44.7481 139.17 44.6047L139.018 45.081L138.865 45.5572C139.433 45.7388 140.481 45.8856 141.252 45.8856V45.3856ZM139.018 45.081L139.187 44.6105C138.755 44.455 138.062 44.0093 137.677 43.6427L137.332 44.0048L136.987 44.3669C137.455 44.8126 138.265 45.3413 138.848 45.5514L139.018 45.081ZM137.332 44.0048L137.686 43.6512C137.327 43.2923 136.808 42.5294 136.564 42.0212L136.113 42.2382L135.663 42.4551C135.946 43.0438 136.525 43.905 136.978 44.3583L137.332 44.0048ZM136.113 42.2382L136.57 42.0351C136.383 41.6146 136.289 41.3304 136.235 40.8192C136.177 40.2773 136.166 39.4941 136.166 38.0741H135.666H135.166C135.166 39.4773 135.176 40.3192 135.24 40.925C135.308 41.5616 135.437 41.9477 135.656 42.4412L136.113 42.2382ZM135.666 38.0741H136.166C136.166 35.6967 136.25 34.6641 136.513 33.7437L136.032 33.6063L135.551 33.469C135.246 34.5388 135.166 35.6995 135.166 38.0741L135.666 38.0741ZM136.032 33.6063L136.514 33.7402C136.714 33.0199 137.095 31.8169 137.392 31.0436L136.926 30.8642L136.459 30.6847C136.147 31.4956 135.757 32.7305 135.55 33.4725L136.032 33.6063ZM136.926 30.8642L137.396 31.0331C137.671 30.2685 138.392 28.6638 138.999 27.4286L138.551 27.2079L138.102 26.9872C137.491 28.2299 136.749 29.8756 136.455 30.6952L136.926 30.8642ZM138.551 27.2079L139.002 27.4226C139.578 26.2123 140.679 24.3692 141.415 23.3347L141.008 23.0448L140.6 22.755C139.834 23.8327 138.702 25.7259 138.099 26.9932L138.551 27.2079ZM141.008 23.0448L141.415 23.3347C142.148 22.3051 143.612 20.5984 144.655 19.5356L144.298 19.1854L143.941 18.8353C142.871 19.9255 141.371 21.6725 140.6 22.7549L141.008 23.0448ZM144.298 19.1854L144.651 19.539C145.689 18.501 147.415 17.037 148.447 16.3028L148.157 15.8954L147.867 15.488C146.787 16.257 145.018 17.7577 143.944 18.8319L144.298 19.1854ZM148.157 15.8954L148.442 16.3065C149.489 15.5817 150.965 14.6865 151.718 14.3386L151.509 13.8847L151.299 13.4307C150.469 13.814 148.938 14.7467 147.873 15.4843L148.157 15.8954ZM151.509 13.8847L151.718 14.3386C152.497 13.9791 153.653 13.5214 154.294 13.327L154.149 12.8485L154.004 12.37C153.305 12.5819 152.105 13.059 151.299 13.4307L151.509 13.8847ZM154.149 12.8485L154.287 13.3293C155.079 13.1028 155.899 13.0043 157.077 13.0436L157.094 12.5438L157.11 12.0441C155.852 12.0022 154.925 12.107 154.012 12.3678L154.149 12.8485ZM156.789 14.8183L156.847 14.3217C156.075 14.2308 155.347 14.324 154.591 14.5909L154.758 15.0624L154.924 15.5339C155.549 15.3133 156.123 15.2433 156.731 15.3148L156.789 14.8183ZM154.758 15.0624L154.59 14.5915C153.96 14.8165 152.882 15.4343 152.138 15.9515L152.423 16.3622L152.708 16.7729C153.425 16.2748 154.418 15.7146 154.926 15.5333L154.758 15.0624ZM152.423 16.3622L152.138 15.9515C151.369 16.4854 150.121 17.6097 149.35 18.4647L149.721 18.7997L150.092 19.1347C150.823 18.3243 152.014 17.2545 152.708 16.7729L152.423 16.3622ZM149.721 18.7997L149.349 18.4647C148.586 19.3113 147.414 20.7714 146.749 21.7478L147.162 22.0292L147.575 22.3106C148.21 21.3781 149.353 19.9537 150.092 19.1347L149.721 18.7997ZM147.162 22.0292L146.749 21.7478C146.086 22.7206 145.08 24.4242 144.503 25.5592L144.948 25.786L145.394 26.0129C145.953 24.9138 146.938 23.2468 147.575 22.3106L147.162 22.0292ZM144.948 25.786L144.503 25.5592C144.037 26.4748 143.494 27.7288 143.139 28.6569L143.605 28.8358L144.072 29.0148C144.418 28.112 144.947 26.891 145.394 26.0129L144.948 25.786ZM143.605 28.8358L143.154 28.6208C141.912 31.2282 141.182 33.7502 141.044 35.8088C140.91 37.8253 141.338 39.5899 142.668 40.3859L142.925 39.9569L143.182 39.5279C142.368 39.0406 141.913 37.8141 142.042 35.8755C142.169 33.9791 142.851 31.5822 144.057 29.0509L143.605 28.8358ZM142.925 39.9569L142.668 40.386C143.278 40.7508 143.984 40.8471 144.72 40.7495L144.654 40.2538L144.589 39.7581C144.019 39.8336 143.554 39.7505 143.182 39.5279L142.925 39.9569ZM144.654 40.2538L144.645 40.7537C144.826 40.7569 145.015 40.7486 145.188 40.7213L145.11 40.2274L145.032 39.7335C144.934 39.7491 144.806 39.7564 144.663 39.7539L144.654 40.2538ZM145.11 40.2274L145.213 40.7167C145.641 40.6267 146.416 40.3683 146.966 40.0822L146.735 39.6386L146.505 39.195C146.04 39.4368 145.351 39.6657 145.007 39.7382L145.11 40.2274ZM146.735 39.6386L146.952 40.0893C147.158 39.9905 147.422 39.8088 147.699 39.5982C147.985 39.381 148.314 39.1106 148.655 38.8138L148.327 38.4364L147.999 38.059C147.669 38.3461 147.358 38.6017 147.094 38.8019C146.822 39.0088 146.626 39.1363 146.519 39.1878L146.735 39.6386ZM148.327 38.4364L148.636 38.8297C149.902 37.8362 151.2 36.4987 152.428 34.9036L152.032 34.5985L151.636 34.2935C150.448 35.8361 149.207 37.1104 148.018 38.0431L148.327 38.4364ZM152.032 34.5985L152.413 34.9229C152.79 34.4804 153.137 34.0598 153.408 33.7081L153.012 33.4032L152.615 33.0984C152.36 33.4307 152.025 33.8367 151.652 34.2742L152.032 34.5985ZM153.012 33.4032L153.408 33.7081C154.23 32.6398 155.396 30.9603 156.015 29.971L155.591 29.706L155.167 29.441C154.567 30.4014 153.419 32.0543 152.615 33.0984L153.012 33.4032ZM155.591 29.706L156.017 29.967C156.634 28.9592 157.575 27.2624 158.128 26.1761L157.683 25.9491L157.237 25.7222C156.694 26.7887 155.766 28.4624 155.164 29.4449L155.591 29.706ZM157.683 25.9491L158.13 26.1727C158.684 25.0649 159.406 23.418 159.72 22.4952L159.247 22.3339L158.774 22.1725C158.479 23.0372 157.778 24.64 157.235 25.7255L157.683 25.9491ZM159.247 22.3339L159.72 22.4966C160.162 21.2112 160.315 20.3841 160.315 19.0839L159.815 19.0839L159.315 19.0839C159.315 20.2615 159.185 20.9787 158.774 22.1711L159.247 22.3339ZM159.815 19.0839H160.315C160.315 17.841 160.214 17.1407 159.88 16.4495L159.43 16.6669L158.979 16.8843C159.214 17.371 159.315 17.8896 159.315 19.0839H159.815ZM159.43 16.6669L159.877 16.4433C159.622 15.9328 159.109 15.3084 158.729 14.9996L158.414 15.3876L158.099 15.7756C158.369 15.995 158.791 16.5075 158.982 16.8905L159.43 16.6669ZM158.414 15.3876L158.721 14.9929C158.258 14.6331 157.509 14.3877 156.839 14.3207L156.789 14.8183L156.739 15.3158C157.288 15.3707 157.838 15.5733 158.107 15.7823L158.414 15.3876Z" fill="#00EEEE"/>
</g>
</svg>
