<svg width="169" height="47" viewBox="0 0 169 47" fill="none" xmlns="http://www.w3.org/2000/svg">
<g style="mix-blend-mode:multiply">
<path d="M127.237 12.9909C128.415 12.9096 130.649 12.7268 132.213 12.5846C133.777 12.4425 135.158 12.3206 135.26 12.3003C135.382 12.3003 135.463 12.4018 135.443 12.544C135.422 12.6659 133.94 17.2155 132.152 22.6384C130.365 28.0613 128.476 33.9311 127.968 35.6981C127.461 37.4449 127.034 39.09 127.034 39.3541C127.034 39.5978 127.115 39.9228 127.197 40.0649C127.318 40.2883 127.461 40.2883 128.05 40.0446C128.436 39.9024 129.654 38.9072 132.741 35.9419L133.98 37.1605L133.371 38.0745C133.046 38.5823 132.152 39.6993 131.421 40.5727C130.69 41.4257 129.471 42.6444 128.72 43.274C127.948 43.9036 126.892 44.6348 126.323 44.9192C125.612 45.2848 124.881 45.4676 123.886 45.5488C122.647 45.6097 122.383 45.5691 121.753 45.1426C121.367 44.8785 120.88 44.3505 120.677 43.9646C120.393 43.4162 120.332 42.949 120.393 41.9335C120.474 40.9992 121.205 38.3995 122.972 32.8953C124.353 28.6504 125.856 23.918 126.344 22.3744C126.872 20.7292 127.237 19.2059 127.237 18.6372C127.237 18.0888 127.095 17.4592 126.933 17.2155C126.77 16.9514 126.344 16.6061 126.019 16.4437C125.694 16.2812 125.186 16.139 124.902 16.139C124.617 16.139 124.353 16.0781 124.292 15.9968C124.252 15.8953 124.414 15.225 125.105 13.1127L127.237 12.9909Z" fill="#EE0B00" stroke="#EE0B00" stroke-linejoin="round"/>
<path d="M74.3298 32.5909C75.1625 29.0771 76.6452 22.9636 77.5998 19.0437L79.3465 11.874H84.7085C89.705 11.874 90.0705 11.8943 89.9893 12.2193C89.9284 12.4224 89.6034 13.8238 89.2784 15.3268C88.9332 16.8298 87.1661 24.0401 82.0478 44.5741H76.7062C73.7814 44.5741 71.3848 44.5132 71.3848 44.4117C71.3848 44.3304 71.7097 43.0712 72.0956 41.6291C72.4815 40.187 73.4768 36.1046 74.3298 32.5909Z" fill="#EE0B00" stroke="#EE0B00" stroke-linejoin="round"/>
<path d="M101.282 11.7723C102.317 11.4879 103.861 11.1832 104.694 11.0817C105.527 10.9598 107.172 10.9192 108.35 10.9801C109.528 11.0208 111.071 11.2036 111.803 11.3864C112.534 11.5488 113.671 11.9551 114.341 12.28C115.012 12.605 116.007 13.2549 116.555 13.7424C117.185 14.3111 117.794 15.1235 118.241 16.0375C118.85 17.2561 118.952 17.7233 119.053 19.3887C119.114 20.4449 119.114 21.562 118.911 22.4353L114.89 22.415C112.696 22.415 110.482 22.3338 109.975 22.2729C109.061 22.1307 109.061 22.1307 108.959 21.2167C108.898 20.7089 108.654 20.0184 108.431 19.6934C108.187 19.3481 107.639 18.9013 107.212 18.6779C106.623 18.3732 106.014 18.2717 104.897 18.2717C103.78 18.2717 103.17 18.3732 102.581 18.6779C102.155 18.9013 101.607 19.3481 101.383 19.6934C101.16 20.0184 100.957 20.648 100.957 21.0542C100.936 21.5823 101.078 21.9479 101.444 22.3338C101.728 22.6384 102.358 23.0853 102.866 23.3493C103.374 23.593 104.288 23.9383 104.897 24.1211C105.506 24.3039 107.111 24.6695 108.451 24.9539C109.792 25.2382 111.579 25.7054 112.412 25.9897C113.245 26.274 114.382 26.8021 114.93 27.1677C115.479 27.5333 116.169 28.1832 116.474 28.6301C116.779 29.0769 117.144 29.8081 117.307 30.2549C117.449 30.7018 117.571 31.7985 117.571 32.6922C117.571 33.789 117.429 34.7436 117.124 35.6373C116.88 36.3684 116.251 37.5871 115.702 38.3792C115.154 39.151 114.118 40.3087 113.407 40.9383C112.696 41.568 111.599 42.4007 110.99 42.8069C110.381 43.1928 109.325 43.7412 108.654 44.0255C107.984 44.3099 106.928 44.6755 106.319 44.8583C105.709 45.0411 104.328 45.3254 103.272 45.4879C102.216 45.6504 100.55 45.7926 99.5552 45.7926C98.5803 45.7926 97.0773 45.691 96.2243 45.5692C95.3509 45.4473 93.9088 45.102 93.0152 44.8177C92.1215 44.513 90.8419 43.9037 90.192 43.4568C89.5217 43.01 88.6484 42.2382 88.2422 41.7304C87.836 41.2227 87.3079 40.2681 87.0439 39.5978C86.6986 38.6838 86.5564 37.9324 86.5564 36.6528C86.5361 35.6982 86.597 34.6827 86.8204 33.8093H97.1789V34.7233C97.1789 35.231 97.3007 35.9419 97.4429 36.2872C97.6054 36.6528 98.0116 37.2012 98.3569 37.5058C98.7225 37.8308 99.4943 38.2167 100.083 38.3995C100.794 38.6026 101.464 38.6635 102.155 38.562C102.724 38.5011 103.617 38.237 104.166 37.9933C104.714 37.7699 105.425 37.2621 105.75 36.8965C106.176 36.4091 106.319 36.0435 106.319 35.4341C106.319 34.7842 106.197 34.4999 105.709 34.053C105.364 33.7484 104.572 33.2812 103.922 33.0172C103.292 32.7531 101.525 32.286 100.022 31.9813C98.5194 31.6767 96.6914 31.2298 95.9602 31.0064C95.229 30.7627 94.0916 30.2143 93.4214 29.7878C92.7511 29.3613 91.9184 28.6504 91.5528 28.2036C91.2075 27.777 90.7607 27.0052 90.5779 26.4975C90.4154 25.9897 90.2123 25.1163 90.1514 24.568C90.0904 23.9993 90.1717 22.9228 90.3342 22.1307C90.4967 21.3386 90.9029 20.1199 91.2482 19.3887C91.5731 18.6576 92.3043 17.5202 92.8527 16.8702C93.3808 16.2 94.4166 15.2048 95.1478 14.6564C95.879 14.108 97.1382 13.3565 97.9507 12.9706C98.7428 12.5847 100.266 12.0566 101.282 11.7723Z" fill="#EE0B00" stroke="#EE0B00" stroke-linejoin="round"/>
<path d="M59.3993 10.8784C60.1304 10.8784 61.4501 10.9402 62.3436 11.062C63.2372 11.1636 64.6593 11.4876 65.4921 11.772C66.3248 12.0563 67.5029 12.5851 68.1122 12.9507C68.7215 13.296 69.6968 14.047 70.2655 14.6157C70.8545 15.1641 71.6464 16.1599 72.0526 16.7896C72.4791 17.4395 73.0476 18.6779 73.3319 19.5308C73.6772 20.5665 73.9008 21.7447 73.9618 22.9429C74.043 24.1615 73.9616 25.4008 73.7382 26.7007C73.5554 27.7568 73.0684 29.5852 72.6825 30.7632C72.2966 31.941 71.6465 33.4841 71.2606 34.2153C70.8748 34.9464 70.1234 36.1248 69.5751 36.856C69.0268 37.5871 67.889 38.8461 67.036 39.6382C66.183 40.4505 64.7815 41.588 63.9081 42.1567C63.0553 42.705 61.8776 43.3954 61.329 43.6597C60.7603 43.9237 59.582 44.3706 58.6884 44.6753C57.7947 44.9596 56.1492 45.346 55.0321 45.5288C53.6309 45.7319 52.3108 45.7926 50.7675 45.7114C49.5285 45.6505 47.7611 45.4065 46.8065 45.1831C45.8519 44.9597 44.308 44.371 43.3534 43.9038C42.1554 43.3149 41.2619 42.6853 40.4091 41.8325C39.6779 41.1014 38.8854 40.0449 38.4589 39.1919C38.0526 38.3998 37.5653 37.0387 37.3622 36.145C37.0779 34.8656 37.0165 34.033 37.118 32.2866C37.1993 30.8852 37.4232 29.2803 37.7684 28.021C38.0528 26.9039 38.7021 25.1162 39.2098 24.0601C39.7176 23.0039 40.5712 21.5008 41.079 20.729C41.6071 19.9369 42.8052 18.5155 43.7596 17.561C44.7142 16.6064 46.3191 15.2655 47.3143 14.5952C48.3096 13.925 49.8739 13.0721 50.7675 12.7065C51.661 12.341 53.0823 11.854 53.9149 11.6509C54.7477 11.4275 56.0275 11.1831 56.7587 11.0815C57.4899 10.98 58.6681 10.8987 59.3993 10.8784ZM59.5487 18.4204C57.2574 17.5238 54.4458 18.8303 52.1952 21.5073C51.4994 22.2634 50.8155 23.2121 50.4423 23.9585C50.036 24.7506 49.5075 25.9695 49.2841 26.7007C47.3943 32.0685 48.4073 37.31 51.6591 38.5825C55.0292 39.9013 59.5273 36.4567 61.7059 30.8892C62.8766 27.8972 63.1379 24.9014 62.6073 22.5649C62.5368 22.1429 62.4584 21.7628 62.3846 21.5415C62.2793 21.2256 62.0174 20.7432 61.7323 20.3325C61.1878 19.442 60.4566 18.7757 59.5487 18.4204Z" fill="#EE0B00"/>
<path d="M59.3993 10.8784L59.3993 10.3782L59.3854 10.3786L59.3993 10.8784ZM62.3436 11.062L62.2761 11.5576L62.2872 11.5588L62.3436 11.062ZM65.4921 11.772L65.6536 11.2988L65.6536 11.2988L65.4921 11.772ZM68.1122 12.9507L67.8549 13.3796L67.8657 13.3857L68.1122 12.9507ZM70.2655 14.6157L69.9119 14.9693C69.9162 14.9735 69.9204 14.9776 69.9248 14.9817L70.2655 14.6157ZM72.0526 16.7896L71.6325 17.0606L71.6346 17.0638L72.0526 16.7896ZM73.3319 19.5308L73.8063 19.3726L73.8062 19.3726L73.3319 19.5308ZM73.9618 22.9429L73.4624 22.9683L73.4629 22.9761L73.9618 22.9429ZM73.7382 26.7007L74.2308 26.786L74.2309 26.7854L73.7382 26.7007ZM72.6825 30.7632L73.1576 30.9188L73.1576 30.9188L72.6825 30.7632ZM71.2606 34.2153L71.7028 34.4487L71.7028 34.4487L71.2606 34.2153ZM69.5751 36.856L69.9751 37.156L69.9751 37.1559L69.5751 36.856ZM67.036 39.6382L66.6957 39.2718L66.6912 39.2761L67.036 39.6382ZM63.9081 42.1567L64.1785 42.5773L64.1809 42.5757L63.9081 42.1567ZM61.329 43.6597L61.5396 44.1132L61.5459 44.1101L61.329 43.6597ZM58.6884 44.6753L58.84 45.1519L58.8497 45.1485L58.6884 44.6753ZM55.0321 45.5288L55.1038 46.0237L55.1128 46.0222L55.0321 45.5288ZM50.7675 45.7114L50.7937 45.2121L50.792 45.212L50.7675 45.7114ZM46.8065 45.1831L46.9205 44.6963H46.9205L46.8065 45.1831ZM43.3534 43.9038L43.1328 44.3525L43.1336 44.3529L43.3534 43.9038ZM40.4091 41.8325L40.0555 42.1861L40.0555 42.1861L40.4091 41.8325ZM38.4589 39.1919L38.9061 38.9683L38.9038 38.9637L38.4589 39.1919ZM37.3622 36.145L36.8741 36.2535L36.8746 36.2558L37.3622 36.145ZM37.118 32.2866L37.6172 32.3156L37.6172 32.3156L37.118 32.2866ZM37.7684 28.021L38.2507 28.1532L38.253 28.1443L37.7684 28.021ZM39.2098 24.0601L38.7592 23.8434L38.7592 23.8434L39.2098 24.0601ZM41.079 20.729L40.663 20.4516L40.6613 20.4542L41.079 20.729ZM43.7596 17.561L43.4061 17.2075L43.4061 17.2075L43.7596 17.561ZM47.3143 14.5952L47.035 14.1805L47.035 14.1805L47.3143 14.5952ZM50.7675 12.7065L50.5782 12.2438L50.5781 12.2438L50.7675 12.7065ZM53.9149 11.6509L54.0334 12.1368L54.0445 12.1338L53.9149 11.6509ZM56.7587 11.0815L56.6899 10.5863L56.6899 10.5863L56.7587 11.0815ZM59.5487 18.4204L59.7309 17.9548L59.7309 17.9548L59.5487 18.4204ZM52.1952 21.5073L52.5631 21.8459C52.5682 21.8404 52.5731 21.8348 52.5779 21.8291L52.1952 21.5073ZM50.4423 23.9585L50.8872 24.1867L50.8895 24.1821L50.4423 23.9585ZM49.2841 26.7007L49.7557 26.8667C49.758 26.8601 49.7602 26.8535 49.7622 26.8468L49.2841 26.7007ZM51.6591 38.5825L51.4769 39.0481L51.4769 39.0481L51.6591 38.5825ZM61.7059 30.8892L62.1716 31.0714L62.1716 31.0714L61.7059 30.8892ZM62.6073 22.5649L62.1141 22.6473C62.1157 22.6568 62.1176 22.6663 62.1197 22.6757L62.6073 22.5649ZM62.3846 21.5415L62.859 21.3834L62.859 21.3833L62.3846 21.5415ZM61.7323 20.3325L61.3057 20.5933C61.3108 20.6016 61.3161 20.6097 61.3216 20.6177L61.7323 20.3325ZM59.3993 10.8784L59.3993 11.3784C60.1152 11.3784 61.4112 11.4395 62.2761 11.5574L62.3436 11.062L62.4112 10.5666C61.4889 10.4409 60.1456 10.3784 59.3993 10.3784L59.3993 10.8784ZM62.3436 11.062L62.2872 11.5588C63.144 11.6562 64.5309 11.9722 65.3305 12.2452L65.4921 11.772L65.6536 11.2988C64.7877 11.0031 63.3304 10.6709 62.4001 10.5652L62.3436 11.062ZM65.4921 11.772L65.3305 12.2451C66.1381 12.5209 67.2825 13.036 67.8549 13.3794L68.1122 12.9507L68.3694 12.5219C67.7232 12.1342 66.5115 11.5917 65.6536 11.2988L65.4921 11.772ZM68.1122 12.9507L67.8657 13.3857C68.4317 13.7065 69.3716 14.429 69.9119 14.9693L70.2655 14.6157L70.6191 14.2622C70.022 13.6651 69.0113 12.8855 68.3587 12.5157L68.1122 12.9507ZM70.2655 14.6157L69.9248 14.9817C70.477 15.4958 71.2433 16.4574 71.6325 17.0606L72.0526 16.7896L72.4728 16.5185C72.0495 15.8624 71.232 14.8324 70.6062 14.2498L70.2655 14.6157ZM72.0526 16.7896L71.6346 17.0638C72.0316 17.6689 72.5832 18.8658 72.8576 19.6889L73.3319 19.5308L73.8062 19.3726C73.512 18.4899 72.9265 17.21 72.4707 16.5153L72.0526 16.7896ZM73.3319 19.5308L72.8576 19.6889C73.188 20.6802 73.4037 21.8136 73.4624 22.9683L73.9618 22.9429L74.4611 22.9175C74.398 21.6758 74.1663 20.4528 73.8063 19.3726L73.3319 19.5308ZM73.9618 22.9429L73.4629 22.9761C73.5411 24.1494 73.4632 25.3488 73.2454 26.616L73.7382 26.7007L74.2309 26.7854C74.46 25.4529 74.545 24.1736 74.4607 22.9096L73.9618 22.9429ZM73.7382 26.7007L73.2455 26.6154C73.0681 27.6404 72.5884 29.4442 72.2073 30.6075L72.6825 30.7632L73.1576 30.9188C73.5484 29.7262 74.0426 27.8733 74.2308 26.786L73.7382 26.7007ZM72.6825 30.7632L72.2073 30.6075C71.8285 31.7638 71.1888 33.2801 70.8184 33.982L71.2606 34.2153L71.7028 34.4487C72.1042 33.688 72.7647 32.1182 73.1576 30.9188L72.6825 30.7632ZM71.2606 34.2153L70.8184 33.982C70.4459 34.6878 69.709 35.844 69.1751 36.556L69.5751 36.856L69.9751 37.1559C70.5378 36.4056 71.3036 35.2051 71.7028 34.4487L71.2606 34.2153ZM69.5751 36.856L69.1751 36.556C68.6467 37.2604 67.5296 38.4975 66.6958 39.2718L67.036 39.6382L67.3762 40.0046C68.2485 39.1946 69.4068 37.9137 69.9751 37.156L69.5751 36.856ZM67.036 39.6382L66.6912 39.2761C65.8553 40.0722 64.4776 41.1892 63.6352 41.7377L63.9081 42.1567L64.1809 42.5757C65.0853 41.9868 66.5108 40.8289 67.3808 40.0003L67.036 39.6382ZM63.9081 42.1567L63.6377 41.7361C62.7902 42.2809 61.6328 42.9584 61.112 43.2092L61.329 43.6597L61.5459 44.1101C62.1224 43.8325 63.3204 43.129 64.1785 42.5773L63.9081 42.1567ZM61.329 43.6597L61.1184 43.2062C60.574 43.4589 59.4154 43.8992 58.527 44.202L58.6884 44.6753L58.8497 45.1485C59.7485 44.8421 60.9467 44.3884 61.5395 44.1132L61.329 43.6597ZM58.6884 44.6753L58.5368 44.1988C57.6696 44.4748 56.0481 44.8559 54.9514 45.0354L55.0321 45.5288L55.1128 46.0222C56.2502 45.8361 57.9198 45.4445 58.84 45.1518L58.6884 44.6753ZM55.0321 45.5288L54.9604 45.034C53.593 45.2321 52.3058 45.2917 50.7937 45.2121L50.7675 45.7114L50.7412 46.2107C52.3158 46.2936 53.6687 46.2316 55.1038 46.0236L55.0321 45.5288ZM50.7675 45.7114L50.792 45.212C49.5794 45.1524 47.8422 44.912 46.9205 44.6963L46.8065 45.1831L46.6926 45.6699C47.68 45.9011 49.4776 46.1486 50.7429 46.2108L50.7675 45.7114ZM46.8065 45.1831L46.9205 44.6963C46.0117 44.4836 44.5038 43.9101 43.5732 43.4547L43.3534 43.9038L43.1336 44.3529C44.1122 44.8318 45.6921 45.4358 46.6926 45.6699L46.8065 45.1831ZM43.3534 43.9038L43.574 43.4551C42.4203 42.888 41.573 42.2893 40.7626 41.4789L40.4091 41.8325L40.0555 42.1861C40.9509 43.0813 41.8904 43.7418 43.1328 44.3525L43.3534 43.9038ZM40.4091 41.8325L40.7626 41.479C40.0626 40.779 39.3046 39.7653 38.9061 38.9683L38.4589 39.1919L38.0117 39.4155C38.4662 40.3245 39.2932 41.4238 40.0555 42.1861L40.4091 41.8325ZM38.4589 39.1919L38.9038 38.9637C38.5177 38.211 38.0442 36.8896 37.8497 36.0342L37.3622 36.145L36.8746 36.2558C37.0864 37.1878 37.5876 38.5886 38.014 39.4201L38.4589 39.1919ZM37.3622 36.145L37.8503 36.0366C37.5781 34.8117 37.5177 34.0267 37.6172 32.3156L37.118 32.2866L36.6189 32.2576C36.5153 34.0392 36.5777 34.9195 36.8741 36.2535L37.3622 36.145ZM37.118 32.2866L37.6172 32.3156C37.697 30.9384 37.9171 29.3698 38.2506 28.1532L37.7684 28.021L37.2862 27.8888C36.9292 29.1907 36.7015 30.832 36.6189 32.2577L37.118 32.2866ZM37.7684 28.021L38.253 28.1443C38.5291 27.0595 39.167 25.303 39.6605 24.2767L39.2098 24.0601L38.7592 23.8434C38.2371 24.9294 37.5764 26.7483 37.2839 27.8977L37.7684 28.021ZM39.2098 24.0601L39.6605 24.2767C40.1592 23.2394 41.0019 21.7558 41.4967 21.0038L41.079 20.729L40.6613 20.4542C40.1405 21.2458 39.276 22.7684 38.7592 23.8434L39.2098 24.0601ZM41.079 20.729L41.495 21.0064C41.9998 20.2493 43.1744 18.8534 44.1132 17.9146L43.7596 17.561L43.4061 17.2075C42.436 18.1776 41.2145 19.6244 40.663 20.4516L41.079 20.729ZM43.7596 17.561L44.1132 17.9146C45.0483 16.9795 46.6286 15.6599 47.5936 15.0099L47.3143 14.5952L47.035 14.1805C46.0097 14.8711 44.3802 16.2333 43.4061 17.2075L43.7596 17.561ZM47.3143 14.5952L47.5936 15.0099C48.5662 14.355 50.1004 13.5197 50.9568 13.1693L50.7675 12.7065L50.5781 12.2438C49.6473 12.6246 48.053 13.495 47.035 14.1805L47.3143 14.5952ZM50.7675 12.7065L50.9568 13.1693C51.8353 12.81 53.232 12.3321 54.0334 12.1366L53.9149 11.6509L53.7964 11.1651C52.9325 11.3759 51.4868 11.8721 50.5782 12.2438L50.7675 12.7065ZM53.9149 11.6509L54.0445 12.1338C54.854 11.9166 56.1132 11.676 56.8275 11.5768L56.7587 11.0815L56.6899 10.5863C55.9418 10.6902 54.6413 10.9383 53.7854 11.168L53.9149 11.6509ZM56.7587 11.0815L56.8274 11.5768C57.5352 11.4785 58.6942 11.3982 59.4132 11.3782L59.3993 10.8784L59.3854 10.3786C58.642 10.3993 57.4445 10.4815 56.6899 10.5863L56.7587 11.0815ZM59.5487 18.4204L59.7309 17.9548C57.1326 16.9381 54.1085 18.4546 51.8125 21.1856L52.1952 21.5073L52.5779 21.8291C54.7832 19.206 57.3822 18.1096 59.3665 18.886L59.5487 18.4204ZM52.1952 21.5073L51.8273 21.1687C51.1085 21.9497 50.3943 22.9365 49.9951 23.7349L50.4423 23.9585L50.8895 24.1821C51.2367 23.4877 51.8902 22.5771 52.5631 21.8459L52.1952 21.5073ZM50.4423 23.9585L49.9974 23.7303C49.5835 24.5374 49.041 25.7851 48.8059 26.5546L49.2841 26.7007L49.7622 26.8468C49.9739 26.1539 50.4886 24.9638 50.8872 24.1867L50.4423 23.9585ZM49.2841 26.7007L48.8124 26.5346C47.8433 29.2874 47.6092 32.0313 48.053 34.2744C48.4952 36.5093 49.6334 38.3267 51.4769 39.0481L51.6591 38.5825L51.8413 38.1169C50.433 37.5658 49.4388 36.1263 49.034 34.0803C48.6308 32.0426 48.8351 29.4818 49.7557 26.8667L49.2841 26.7007ZM51.6591 38.5825L51.4769 39.0481C53.3877 39.7959 55.54 39.165 57.4333 37.7152C59.3353 36.2587 61.0546 33.9257 62.1716 31.0714L61.7059 30.8892L61.2403 30.707C60.1786 33.4201 58.5596 35.5932 56.8253 36.9212C55.0825 38.2559 53.3006 38.6879 51.8413 38.1169L51.6591 38.5825ZM61.7059 30.8892L62.1716 31.0714C63.3714 28.0049 63.6517 24.9062 63.0949 22.4542L62.6073 22.5649L62.1197 22.6757C62.6241 24.8967 62.3818 27.7896 61.2403 30.707L61.7059 30.8892ZM62.6073 22.5649L63.1005 22.4825C63.03 22.0606 62.9464 21.6456 62.859 21.3834L62.3846 21.5415L61.9103 21.6996C61.9704 21.8799 62.0436 22.2253 62.1141 22.6473L62.6073 22.5649ZM62.3846 21.5415L62.859 21.3833C62.7326 21.0046 62.442 20.4781 62.143 20.0474L61.7323 20.3325L61.3216 20.6177C61.5928 21.0084 61.8259 21.4467 61.9103 21.6997L62.3846 21.5415ZM61.7323 20.3325L62.1589 20.0717C61.5677 19.1048 60.7572 18.3564 59.7309 17.9548L59.5487 18.4204L59.3665 18.886C60.156 19.195 60.808 19.7793 61.3057 20.5933L61.7323 20.3325Z" fill="#EE0B00"/>
<path d="M23.451 11.5285C24.0603 11.3457 25.0149 11.1426 25.5836 11.041C26.132 10.9598 27.5538 10.9192 28.7318 10.9598C30.1941 11.0004 31.2706 11.1629 32.1846 11.4675C32.9158 11.691 33.9516 12.1987 34.5203 12.5846C35.0687 12.9502 35.7796 13.6205 36.0842 14.047C36.3889 14.4735 36.8357 15.3266 37.0795 15.9359C37.3232 16.5452 37.5466 17.7435 37.6075 18.5763C37.6685 19.5309 37.5872 20.8308 37.3841 22.0291C37.2013 23.0852 35.9014 28.6097 31.8799 44.5942L20.8106 44.5739L20.9122 44.127C20.9731 43.863 21.7449 40.6945 22.6589 37.0589C23.5526 33.4233 24.6087 29.1175 24.9946 27.4723C25.4008 25.685 25.6852 23.9383 25.6852 23.1462C25.6852 21.9885 25.6243 21.7447 25.0962 21.176C24.7915 20.8104 24.1619 20.3839 23.7354 20.2621C23.3088 20.1199 22.4964 19.998 21.9277 19.998C21.2778 19.998 20.5466 20.1808 19.8967 20.4855C19.3483 20.7292 18.5358 21.3385 18.1296 21.7854C17.7031 22.2525 17.1344 23.0649 16.8704 23.6133C16.6063 24.1414 16.2001 25.1163 15.9767 25.7865C15.7736 26.4568 14.6159 30.9658 11.2646 44.5739H5.88232C2.91697 44.5739 0.5 44.513 0.5 44.4317C0.5 44.3302 1.33274 40.8367 2.34827 36.6527C3.3638 32.4687 4.92772 26.0709 5.80108 22.4353C6.69474 18.7997 7.68996 14.9407 8.62425 11.8738H13.7019C17.6219 11.8738 18.7796 11.9347 18.7796 12.1378C18.7796 12.2597 18.5968 13.0721 18.3734 13.9048C18.1499 14.7376 17.9671 15.4687 17.9671 15.5297C17.9671 15.5906 18.3937 15.1438 18.9217 14.5345C19.4701 13.9251 20.445 13.0721 21.1153 12.6456C21.7855 12.1987 22.8417 11.7113 23.451 11.5285Z" fill="#EE0B00" stroke="#EE0B00" stroke-linejoin="round"/>
<path d="M130.549 1.94205C130.793 1.67802 131.443 1.25149 132.012 0.987455C132.581 0.723417 133.393 0.5 133.84 0.5C134.287 0.5 135.018 0.682796 135.465 0.885902C135.911 1.0687 136.521 1.53584 136.846 1.88112C137.15 2.24671 137.496 2.91697 137.618 3.40442C137.739 3.87157 137.78 4.72461 137.719 5.273C137.658 5.8417 137.394 6.69474 137.13 7.20251C136.866 7.73059 136.277 8.38053 135.79 8.72581C134.998 9.29451 134.774 9.33513 133.23 9.33513C131.667 9.33513 131.484 9.29451 130.793 8.72581C130.367 8.40084 129.839 7.7509 129.615 7.30406C129.351 6.7963 129.209 6.10574 129.209 5.47611C129.209 4.90741 129.412 4.01374 129.656 3.44504C129.9 2.89665 130.306 2.20609 130.549 1.94205Z" fill="#EE0B00" stroke="#EE0B00" stroke-linejoin="round"/>
<path d="M80.7058 6.08542C80.9089 5.19176 81.2948 3.56691 81.5385 2.49044L81.965 0.5L92.8109 0.520311L92.161 3.30287C91.7954 4.82616 91.3892 6.6135 90.9829 8.42115H85.56C80.4823 8.42115 80.1168 8.40084 80.2183 8.05556C80.2589 7.87276 80.4823 6.97913 80.7058 6.08548L80.7058 6.08542Z" fill="#EE0B00" stroke="#EE0B00" stroke-linejoin="round"/>
<path d="M157.094 12.5443C158.333 12.6053 159.044 12.727 159.633 13.0317C160.08 13.2551 160.729 13.7628 161.074 14.1283C161.399 14.5142 161.785 15.1438 161.907 15.5297C162.049 15.9156 162.171 16.4235 162.212 16.6469C162.273 16.8903 162.496 16.4637 162.801 15.5297C163.268 14.169 163.39 13.9857 163.918 13.8842C164.243 13.8029 165.36 13.7424 166.376 13.7221C167.411 13.7221 168.264 13.7423 168.265 13.8031C168.265 13.8641 166.701 18.5968 164.792 24.3041C162.903 30.0317 161.075 35.7794 160.729 37.059C160.405 38.3382 160.181 39.5563 160.242 39.7397C160.303 39.9428 160.486 40.1465 160.648 40.2074C160.811 40.2681 161.258 40.1864 161.603 40.0443C161.968 39.8819 162.638 39.3134 163.105 38.765C163.572 38.2168 164.202 37.3844 164.527 36.8969C164.852 36.4101 165.156 36.0242 165.218 36.0434C165.279 36.0434 165.523 36.2461 165.787 36.5102C166.031 36.7539 166.233 37.059 166.233 37.1606C166.233 37.2627 165.604 38.2782 164.853 39.3949C164.101 40.5118 162.862 42.0752 162.07 42.8471C161.197 43.7407 160.181 44.5127 159.43 44.8783C158.658 45.2642 157.805 45.5086 157.094 45.5492C156.281 45.5898 155.794 45.5084 155.266 45.224C154.88 45.0209 154.352 44.4718 154.108 44.0453C153.784 43.4767 153.641 42.9082 153.641 42.0756C153.641 41.3444 153.906 40.0442 154.332 38.5209C154.718 37.221 155.448 34.9462 155.956 33.5043C156.443 32.0629 156.85 30.8447 156.83 30.8031C156.81 30.7828 156.363 31.4736 155.835 32.3266C155.327 33.1999 154.21 34.8654 153.377 36.0434C152.524 37.2214 151.245 38.8669 150.493 39.6996C149.742 40.5323 148.564 41.7102 147.894 42.2992C147.203 42.9085 146.126 43.7002 145.517 44.0658C144.907 44.4517 143.993 44.8987 143.485 45.0815C142.978 45.2439 141.983 45.3861 141.252 45.3861C140.521 45.3861 139.525 45.2439 139.018 45.0815C138.51 44.8987 137.759 44.4114 137.332 44.0053C136.926 43.5991 136.377 42.7861 136.113 42.2377C135.707 41.3239 135.666 40.8974 135.666 38.0746C135.666 35.6983 135.747 34.6011 136.031 33.6059C136.234 32.8747 136.621 31.6558 136.926 30.8637C137.21 30.0714 137.941 28.447 138.55 27.2084C139.139 25.9695 140.256 24.1005 141.008 23.0443C141.759 21.9883 143.242 20.2624 144.298 19.1859C145.354 18.1298 147.101 16.6464 148.157 15.8949C149.213 15.1638 150.717 14.2498 151.509 13.8842C152.301 13.5187 153.478 13.0522 154.148 12.849C155.001 12.6053 155.875 12.5037 157.094 12.5443ZM156.789 14.8188C156.099 14.7375 155.448 14.8192 154.758 15.0629C154.189 15.2661 153.153 15.855 152.422 16.3627C151.691 16.8706 150.472 17.9676 149.721 18.8002C148.969 19.6329 147.812 21.0743 147.162 22.0287C146.512 22.9833 145.517 24.6694 144.948 25.7865C144.492 26.6818 143.958 27.9165 143.607 28.8315C141.157 33.972 140.781 38.6727 142.925 39.9565C143.416 40.2503 144.001 40.3409 144.654 40.2543C144.816 40.2571 144.974 40.2484 145.11 40.227C145.496 40.1457 146.228 39.9021 146.735 39.6381C147.048 39.4881 147.651 39.023 148.32 38.4418C149.548 37.4794 150.819 36.1739 152.027 34.6049C152.404 34.1627 152.746 33.7463 153.011 33.4027C153.823 32.3466 154.982 30.6814 155.591 29.7065C156.2 28.7112 157.134 27.0251 157.683 25.9486C158.231 24.8519 158.941 23.227 159.246 22.3334C159.673 21.0947 159.815 20.3231 159.815 19.0844C159.815 17.866 159.714 17.2563 159.43 16.6674C159.206 16.2206 158.739 15.6512 158.414 15.3871C158.048 15.1028 157.398 14.8797 156.789 14.8188Z" fill="#EE0B00"/>
<path d="M157.094 12.5443L157.118 12.0449L157.11 12.0446L157.094 12.5443ZM159.633 13.0317L159.403 13.4758L159.409 13.4788L159.633 13.0317ZM161.074 14.1283L161.457 13.8063C161.451 13.799 161.444 13.7919 161.438 13.785L161.074 14.1283ZM161.907 15.5297L161.43 15.6803C161.433 15.6878 161.435 15.6952 161.438 15.7025L161.907 15.5297ZM162.212 16.6469L161.72 16.7363C161.722 16.7471 161.724 16.7578 161.727 16.7684L162.212 16.6469ZM162.801 15.5297L162.328 15.3673L162.325 15.3747L162.801 15.5297ZM163.918 13.8842L164.012 14.3752C164.021 14.3735 164.03 14.3715 164.039 14.3693L163.918 13.8842ZM166.376 13.7221L166.376 13.222L166.366 13.2222L166.376 13.7221ZM168.265 13.8031H168.765L168.765 13.7961L168.265 13.8031ZM164.792 24.3041L164.318 24.1455L164.317 24.1475L164.792 24.3041ZM160.729 37.059L160.247 36.9287L160.245 36.9359L160.729 37.059ZM160.242 39.7397L160.721 39.596C160.72 39.5914 160.718 39.5869 160.717 39.5824L160.242 39.7397ZM160.648 40.2074L160.473 40.6756L160.474 40.6759L160.648 40.2074ZM161.603 40.0443L161.793 40.5069L161.806 40.5013L161.603 40.0443ZM163.105 38.765L163.486 39.0893L163.486 39.0893L163.105 38.765ZM164.527 36.8969L164.943 37.1743L164.943 37.1742L164.527 36.8969ZM165.218 36.0434L165.069 36.5208C165.117 36.5358 165.167 36.5434 165.218 36.5434V36.0434ZM165.787 36.5102L166.141 36.1566L166.141 36.1566L165.787 36.5102ZM166.233 37.1606L166.733 37.1626V37.1606H166.233ZM164.853 39.3949L165.267 39.674L165.267 39.674L164.853 39.3949ZM162.07 42.8471L161.721 42.4889L161.713 42.4976L162.07 42.8471ZM159.43 44.8783L159.211 44.4287L159.206 44.4311L159.43 44.8783ZM157.094 45.5492L157.119 46.0486L157.122 46.0484L157.094 45.5492ZM155.266 45.224L155.503 44.7838L155.499 44.7816L155.266 45.224ZM154.108 44.0453L153.674 44.2934L153.674 44.2934L154.108 44.0453ZM153.641 42.0756L153.141 42.0756V42.0756H153.641ZM154.332 38.5209L153.853 38.3786L153.851 38.3861L154.332 38.5209ZM155.956 33.5043L156.428 33.6704L156.43 33.6644L155.956 33.5043ZM156.83 30.8031L157.281 30.5864C157.256 30.5357 157.223 30.4894 157.184 30.4496L156.83 30.8031ZM155.835 32.3266L155.41 32.0633L155.403 32.0753L155.835 32.3266ZM153.377 36.0434L153.782 36.3366L153.785 36.332L153.377 36.0434ZM150.493 39.6996L150.864 40.0346H150.864L150.493 39.6996ZM147.894 42.2992L147.563 41.9237L147.563 41.9243L147.894 42.2992ZM145.517 44.0658L145.259 43.637L145.249 43.6434L145.517 44.0658ZM143.485 45.0815L143.638 45.5577C143.643 45.5559 143.649 45.5539 143.655 45.5519L143.485 45.0815ZM141.252 45.3861V45.8861H141.252L141.252 45.3861ZM139.018 45.0815L138.848 45.5519C138.854 45.5539 138.86 45.5559 138.865 45.5577L139.018 45.0815ZM137.332 44.0053L136.978 44.3589L136.987 44.3674L137.332 44.0053ZM136.113 42.2377L135.656 42.4408C135.658 42.4454 135.661 42.45 135.663 42.4546L136.113 42.2377ZM135.666 38.0746H135.166V38.0746H135.666ZM136.031 33.6059L136.512 33.7432L136.513 33.7397L136.031 33.6059ZM136.926 30.8637L137.393 31.0432L137.396 31.0327L136.926 30.8637ZM138.55 27.2084L138.999 27.4291L139.001 27.4231L138.55 27.2084ZM141.008 23.0443L140.6 22.7545L140.6 22.7545L141.008 23.0443ZM144.298 19.1859L143.944 18.8324L143.941 18.8358L144.298 19.1859ZM148.157 15.8949L147.873 15.4838L147.867 15.4875L148.157 15.8949ZM151.509 13.8842L151.299 13.4302L151.299 13.4302L151.509 13.8842ZM154.148 12.849L154.011 12.3682L154.003 12.3705L154.148 12.849ZM156.789 14.8188L156.731 15.3154L156.739 15.3163L156.789 14.8188ZM154.758 15.0629L154.591 14.5914L154.59 14.592L154.758 15.0629ZM152.422 16.3627L152.137 15.952L152.137 15.952L152.422 16.3627ZM149.721 18.8002L149.35 18.4652L149.349 18.4652L149.721 18.8002ZM147.162 22.0287L146.749 21.7473L146.749 21.7473L147.162 22.0287ZM144.948 25.7865L144.503 25.5597L144.503 25.5597L144.948 25.7865ZM143.607 28.8315L144.059 29.0466C144.064 29.0348 144.07 29.0227 144.074 29.0105L143.607 28.8315ZM142.925 39.9565L142.668 40.3854L142.668 40.3855L142.925 39.9565ZM144.654 40.2543L144.663 39.7544C144.638 39.7539 144.613 39.7554 144.589 39.7586L144.654 40.2543ZM145.11 40.227L145.188 40.7208C145.197 40.7195 145.205 40.718 145.213 40.7162L145.11 40.227ZM146.735 39.6381L146.519 39.1874C146.514 39.1897 146.509 39.192 146.505 39.1945L146.735 39.6381ZM148.32 38.4418L148.012 38.0483C148.005 38.0535 147.999 38.0588 147.992 38.0643L148.32 38.4418ZM152.027 34.6049L151.647 34.2805C151.642 34.2868 151.636 34.2932 151.631 34.2998L152.027 34.6049ZM153.011 33.4027L153.407 33.7076L153.407 33.7076L153.011 33.4027ZM155.591 29.7065L156.015 29.9715L156.017 29.9675L155.591 29.7065ZM157.683 25.9486L158.128 26.1756L158.13 26.1722L157.683 25.9486ZM159.246 22.3334L158.773 22.1707L158.773 22.1721L159.246 22.3334ZM159.815 19.0844L160.315 19.0844V19.0844H159.815ZM159.43 16.6674L159.88 16.45L159.877 16.4438L159.43 16.6674ZM158.414 15.3871L158.729 14.999L158.721 14.9924L158.414 15.3871ZM157.094 12.5443L157.069 13.0437C158.299 13.1042 158.916 13.2241 159.403 13.4758L159.633 13.0317L159.863 12.5875C159.171 12.2299 158.366 12.1063 157.118 12.0449L157.094 12.5443ZM159.633 13.0317L159.409 13.4788C159.795 13.6716 160.398 14.1406 160.711 14.4717L161.074 14.1283L161.438 13.785C161.06 13.385 160.365 12.8386 159.856 12.5845L159.633 13.0317ZM161.074 14.1283L160.692 14.4504C160.992 14.8074 161.335 15.3793 161.43 15.6803L161.907 15.5297L162.384 15.3791C162.235 14.9082 161.806 14.2211 161.457 13.8063L161.074 14.1283ZM161.907 15.5297L161.438 15.7025C161.568 16.0556 161.683 16.5346 161.72 16.7363L162.212 16.6469L162.704 16.5574C162.659 16.3124 162.531 15.7756 162.376 15.3568L161.907 15.5297ZM162.212 16.6469L161.727 16.7684C161.74 16.8209 161.783 16.9829 161.934 17.1009C162.025 17.1718 162.142 17.2164 162.272 17.2142C162.391 17.212 162.484 17.1708 162.542 17.1363C162.648 17.0731 162.716 16.986 162.749 16.9402C162.79 16.8844 162.826 16.8227 162.857 16.7626C162.98 16.5297 163.123 16.1551 163.276 15.6847L162.801 15.5297L162.325 15.3747C162.174 15.8383 162.053 16.1441 161.972 16.2971C161.953 16.3335 161.942 16.3499 161.94 16.3531C161.93 16.3664 161.959 16.3193 162.031 16.2765C162.073 16.2521 162.149 16.2162 162.254 16.2143C162.369 16.2123 162.472 16.2522 162.55 16.3133C162.62 16.368 162.656 16.4282 162.672 16.4594C162.688 16.4923 162.695 16.5173 162.697 16.5254L162.212 16.6469ZM162.801 15.5297L163.274 15.692C163.515 14.9903 163.641 14.6768 163.75 14.5153C163.793 14.4522 163.819 14.4358 163.833 14.4278C163.856 14.4149 163.899 14.3969 164.012 14.3752L163.918 13.8842L163.824 13.3932C163.672 13.4222 163.503 13.4652 163.34 13.5578C163.168 13.6553 163.035 13.7887 162.923 13.9543C162.722 14.25 162.554 14.7084 162.328 15.3674L162.801 15.5297ZM163.918 13.8842L164.039 14.3693C164.149 14.3419 164.461 14.3079 164.919 14.2793C165.358 14.252 165.884 14.232 166.386 14.222L166.376 13.7221L166.366 13.2222C165.853 13.2324 165.312 13.2529 164.857 13.2813C164.421 13.3084 164.012 13.3453 163.797 13.3991L163.918 13.8842ZM166.376 13.7221L166.376 14.2221C166.892 14.2221 167.357 14.2271 167.69 14.2394C167.858 14.2457 167.983 14.2534 168.061 14.2619C168.103 14.2665 168.113 14.2694 168.104 14.2672C168.104 14.267 168.067 14.2586 168.019 14.2334C167.996 14.2208 167.944 14.191 167.893 14.1353C167.839 14.0759 167.767 13.9654 167.765 13.8102L168.265 13.8031L168.765 13.7961C168.762 13.6371 168.689 13.5229 168.631 13.4598C168.576 13.4004 168.52 13.3671 168.49 13.351C168.43 13.3188 168.373 13.3037 168.347 13.2972C168.288 13.2822 168.223 13.2736 168.169 13.2677C168.054 13.2553 167.901 13.2466 167.727 13.2401C167.375 13.2271 166.895 13.2221 166.376 13.2221L166.376 13.7221ZM168.265 13.8031H167.765C167.765 13.7549 167.772 13.7173 167.772 13.7158C167.774 13.7052 167.776 13.6973 167.777 13.6947C167.778 13.6889 167.779 13.6862 167.778 13.6892C167.777 13.6943 167.774 13.7052 167.768 13.7237C167.757 13.7597 167.74 13.8139 167.717 13.8864C167.671 14.031 167.603 14.2418 167.515 14.5121C167.339 15.0526 167.084 15.8274 166.77 16.7793C166.14 18.6828 165.272 21.2923 164.318 24.1455L164.792 24.3041L165.266 24.4627C166.221 21.6087 167.089 18.9981 167.719 17.0932C168.034 16.1408 168.289 15.3644 168.466 14.8219C168.554 14.5509 168.623 14.3373 168.67 14.1891C168.694 14.1153 168.712 14.0559 168.725 14.0131C168.732 13.9922 168.737 13.9723 168.742 13.9556C168.744 13.9477 168.747 13.9364 168.75 13.9241C168.752 13.9182 168.754 13.9078 168.756 13.895C168.757 13.8915 168.765 13.8523 168.765 13.8031H168.265ZM164.792 24.3041L164.317 24.1475C162.43 29.8695 160.596 35.6327 160.247 36.9287L160.729 37.059L161.212 37.1893C161.553 35.9261 163.376 30.1938 165.267 24.4607L164.792 24.3041ZM160.729 37.059L160.245 36.9359C160.08 37.5845 159.941 38.2201 159.849 38.7206C159.804 38.97 159.769 39.1925 159.75 39.3691C159.74 39.4568 159.734 39.5411 159.732 39.6157C159.731 39.6707 159.731 39.7859 159.768 39.897L160.242 39.7397L160.717 39.5824C160.738 39.6476 160.731 39.6846 160.732 39.633C160.733 39.6008 160.736 39.5499 160.744 39.4776C160.76 39.3343 160.79 39.1379 160.833 38.8999C160.92 38.4258 161.054 37.8127 161.214 37.1821L160.729 37.059ZM160.242 39.7397L159.763 39.8833C159.818 40.0664 159.92 40.2298 160.031 40.3566C160.139 40.4796 160.29 40.6071 160.473 40.6756L160.648 40.2074L160.824 39.7393C160.838 39.7445 160.838 39.7469 160.826 39.7378C160.815 39.7295 160.8 39.7159 160.783 39.6971C160.747 39.656 160.727 39.616 160.721 39.596L160.242 39.7397ZM160.648 40.2074L160.474 40.6759C160.603 40.724 160.736 40.7292 160.827 40.7274C160.93 40.7255 161.038 40.7128 161.143 40.6944C161.353 40.6578 161.586 40.5921 161.793 40.5067L161.603 40.0443L161.412 39.582C161.275 39.6387 161.112 39.6848 160.971 39.7094C160.901 39.7216 160.846 39.7269 160.808 39.7276C160.759 39.7285 160.776 39.7212 160.823 39.7389L160.648 40.2074ZM161.603 40.0443L161.806 40.5013C162.056 40.3898 162.36 40.1683 162.64 39.9303C162.93 39.6839 163.233 39.386 163.486 39.0893L163.105 38.765L162.725 38.4408C162.51 38.6924 162.246 38.9529 161.992 39.1685C161.729 39.3925 161.514 39.5364 161.399 39.5874L161.603 40.0443ZM163.105 38.765L163.486 39.0893C163.965 38.5276 164.606 37.6796 164.943 37.1743L164.527 36.8969L164.111 36.6195C163.798 37.0892 163.18 37.906 162.725 38.4408L163.105 38.765ZM164.527 36.8969L164.943 37.1742C165.101 36.9382 165.249 36.733 165.361 36.5934C165.419 36.5216 165.458 36.4785 165.478 36.4587C165.49 36.4469 165.482 36.4573 165.457 36.4735C165.445 36.4814 165.411 36.5023 165.361 36.5189C165.317 36.5337 165.205 36.5631 165.069 36.5208L165.218 36.0434L165.366 35.566C165.223 35.5212 165.102 35.5514 165.046 35.57C164.984 35.5904 164.938 35.6181 164.911 35.6356C164.856 35.6712 164.811 35.7124 164.781 35.7417C164.717 35.8041 164.648 35.8843 164.581 35.9674C164.445 36.1377 164.278 36.3688 164.111 36.6195L164.527 36.8969ZM165.218 36.0434V36.5434C165.157 36.5434 165.111 36.5315 165.089 36.5249C165.064 36.5176 165.046 36.5099 165.038 36.506C165.022 36.4984 165.016 36.4937 165.023 36.4984C165.036 36.5071 165.065 36.5276 165.109 36.5638C165.194 36.6345 165.309 36.7396 165.434 36.8637L165.787 36.5102L166.141 36.1566C166.001 36.0167 165.862 35.8884 165.744 35.7917C165.686 35.7442 165.626 35.6975 165.568 35.6599C165.539 35.6415 165.502 35.6189 165.46 35.5992C165.432 35.5865 165.339 35.5434 165.218 35.5434V36.0434ZM165.787 36.5102L165.434 36.8637C165.533 36.9631 165.624 37.076 165.688 37.1696C165.72 37.2167 165.739 37.2509 165.749 37.2697C165.753 37.2792 165.752 37.278 165.749 37.2678C165.747 37.2627 165.733 37.2221 165.733 37.1606H166.233H166.733C166.733 37.011 166.673 36.8828 166.647 36.831C166.611 36.7565 166.564 36.6801 166.515 36.6078C166.417 36.4625 166.285 36.301 166.141 36.1566L165.787 36.5102ZM166.233 37.1606L165.733 37.1585C165.734 37.1051 165.743 37.0657 165.746 37.0526C165.75 37.0355 165.755 37.0239 165.756 37.0202C165.758 37.013 165.758 37.0141 165.752 37.027C165.741 37.0517 165.72 37.0928 165.686 37.1523C165.621 37.2697 165.523 37.4338 165.399 37.6343C165.152 38.0338 164.811 38.5614 164.438 39.1158L164.853 39.3949L165.267 39.674C165.646 39.1117 165.994 38.5732 166.25 38.1603C166.377 37.9545 166.484 37.7758 166.56 37.6391C166.597 37.5716 166.631 37.5079 166.657 37.4532C166.67 37.4263 166.684 37.394 166.696 37.3602C166.702 37.3441 166.733 37.2629 166.733 37.1626L166.233 37.1606ZM164.853 39.3949L164.438 39.1158C163.698 40.2161 162.48 41.7493 161.721 42.489L162.07 42.8471L162.419 43.2052C163.244 42.401 164.505 40.8076 165.267 39.674L164.853 39.3949ZM162.07 42.8471L161.713 42.4976C160.865 43.3654 159.894 44.0962 159.211 44.4287L159.43 44.8783L159.648 45.3279C160.468 44.9292 161.529 44.1159 162.428 43.1965L162.07 42.8471ZM159.43 44.8783L159.206 44.4311C158.483 44.7927 157.696 45.014 157.065 45.05L157.094 45.5492L157.122 46.0484C157.913 46.0032 158.833 45.7358 159.653 45.3255L159.43 44.8783ZM157.094 45.5492L157.069 45.0499C156.311 45.0877 155.924 45.0105 155.503 44.7838L155.266 45.224L155.029 45.6643C155.664 46.0063 156.251 46.092 157.119 46.0486L157.094 45.5492ZM155.266 45.224L155.499 44.7816C155.372 44.7147 155.185 44.568 154.992 44.3694C154.801 44.1742 154.638 43.9638 154.543 43.7973L154.108 44.0453L153.674 44.2934C153.823 44.5534 154.045 44.8307 154.276 45.0675C154.503 45.3008 154.774 45.5302 155.033 45.6665L155.266 45.224ZM154.108 44.0453L154.543 43.7973C154.268 43.3176 154.141 42.8381 154.141 42.0756H153.641H153.141C153.141 42.9783 153.299 43.6358 153.674 44.2934L154.108 44.0453ZM153.641 42.0756L154.141 42.0756C154.141 41.4207 154.387 40.1806 154.814 38.6557L154.332 38.5209L153.851 38.3861C153.424 39.9078 153.141 41.2681 153.141 42.0756L153.641 42.0756ZM154.332 38.5209L154.811 38.6632C155.195 37.3704 155.923 35.1036 156.428 33.6704L155.956 33.5043L155.484 33.3382C154.974 34.7887 154.241 37.0715 153.853 38.3786L154.332 38.5209ZM155.956 33.5043L156.43 33.6644C156.673 32.9438 156.898 32.2767 157.059 31.7841C157.139 31.5383 157.205 31.3326 157.249 31.1842C157.271 31.111 157.29 31.0459 157.303 30.9948C157.309 30.9706 157.316 30.9402 157.322 30.9098C157.324 30.8957 157.328 30.8695 157.33 30.8383C157.331 30.8228 157.332 30.7959 157.329 30.7631C157.327 30.7382 157.319 30.6672 157.281 30.5864L156.83 30.8031L156.379 31.0198C156.341 30.9404 156.334 30.8713 156.333 30.8488C156.33 30.8184 156.331 30.7946 156.331 30.7826C156.333 30.7585 156.336 30.7417 156.336 30.7392C156.338 30.7319 156.338 30.7333 156.334 30.7492C156.326 30.7783 156.313 30.8265 156.292 30.8958C156.251 31.0326 156.188 31.2293 156.108 31.4734C155.949 31.9607 155.726 32.6234 155.482 33.3442L155.956 33.5043ZM156.83 30.8031L157.184 30.4496C157.065 30.3311 156.917 30.2973 156.802 30.3034C156.704 30.3086 156.633 30.3413 156.601 30.3572C156.537 30.3896 156.494 30.4289 156.483 30.4394C156.451 30.4687 156.427 30.4983 156.416 30.5116C156.389 30.5445 156.36 30.585 156.332 30.6247C156.273 30.7076 156.195 30.8248 156.104 30.9645C155.921 31.2457 155.675 31.6352 155.41 32.0634L155.835 32.3266L156.26 32.5898C156.523 32.165 156.765 31.7826 156.942 31.5102C157.031 31.3732 157.101 31.2682 157.149 31.2006C157.174 31.1651 157.187 31.1483 157.19 31.144C157.195 31.1387 157.183 31.1547 157.16 31.1756C157.153 31.182 157.114 31.2184 157.053 31.2494C157.023 31.2646 156.952 31.2969 156.855 31.302C156.742 31.308 156.594 31.2746 156.477 31.1567L156.83 30.8031ZM155.835 32.3266L155.403 32.0753C154.907 32.9285 153.8 34.579 152.969 35.7548L153.377 36.0434L153.785 36.332C154.62 35.1517 155.748 33.4714 156.267 32.5779L155.835 32.3266ZM153.377 36.0434L152.972 35.7501C152.123 36.9227 150.856 38.5515 150.122 39.3646L150.493 39.6996L150.864 40.0346C151.634 39.1823 152.925 37.5201 153.782 36.3366L153.377 36.0434ZM150.493 39.6996L150.122 39.3646C149.38 40.1864 148.216 41.3501 147.563 41.9237L147.894 42.2992L148.224 42.6748C148.911 42.0703 150.103 40.8781 150.864 40.0346L150.493 39.6996ZM147.894 42.2992L147.563 41.9243C146.892 42.5161 145.839 43.2891 145.259 43.6371L145.517 44.0658L145.774 44.4946C146.413 44.1114 147.514 43.301 148.224 42.6741L147.894 42.2992ZM145.517 44.0658L145.249 43.6434C144.667 44.0119 143.786 44.4419 143.316 44.611L143.485 45.0815L143.655 45.5519C144.2 45.3554 145.147 44.8915 145.784 44.4882L145.517 44.0658ZM143.485 45.0815L143.333 44.6052C142.885 44.7485 141.944 44.8861 141.252 44.8861L141.252 45.3861L141.252 45.8861C142.022 45.8861 143.07 45.7392 143.638 45.5577L143.485 45.0815ZM141.252 45.3861V44.8861C140.56 44.8861 139.618 44.7486 139.17 44.6052L139.018 45.0815L138.865 45.5577C139.433 45.7393 140.481 45.8861 141.252 45.8861V45.3861ZM139.018 45.0815L139.187 44.611C138.755 44.4556 138.062 44.0098 137.677 43.6432L137.332 44.0053L136.987 44.3674C137.455 44.813 138.265 45.3418 138.848 45.5519L139.018 45.0815ZM137.332 44.0053L137.686 43.6517C137.327 43.2928 136.809 42.5291 136.564 42.0208L136.113 42.2377L135.663 42.4546C135.946 43.0431 136.525 43.9053 136.978 44.3588L137.332 44.0053ZM136.113 42.2377L136.57 42.0346C136.383 41.6142 136.289 41.3301 136.235 40.8191C136.177 40.2774 136.166 39.4945 136.166 38.0746H135.666H135.166C135.166 39.4776 135.176 40.3193 135.24 40.9249C135.308 41.5614 135.437 41.9474 135.656 42.4408L136.113 42.2377ZM135.666 38.0746H136.166C136.166 35.6965 136.249 34.6636 136.512 33.7432L136.031 33.6059L135.55 33.4685C135.245 34.5386 135.166 35.7 135.166 38.0746H135.666ZM136.031 33.6059L136.513 33.7397C136.713 33.0197 137.095 31.8167 137.392 31.0432L136.926 30.8637L136.459 30.6842C136.147 31.4949 135.756 32.7297 135.549 33.472L136.031 33.6059ZM136.926 30.8637L137.396 31.0327C137.671 30.2678 138.391 28.6639 138.998 27.4291L138.55 27.2084L138.101 26.9878C137.49 28.2302 136.749 29.8751 136.455 30.6947L136.926 30.8637ZM138.55 27.2084L139.001 27.4231C139.577 26.2127 140.679 24.3688 141.415 23.3342L141.008 23.0443L140.6 22.7545C139.834 23.8322 138.701 25.7262 138.098 26.9937L138.55 27.2084ZM141.008 23.0443L141.415 23.3342C142.148 22.3047 143.612 20.5989 144.655 19.5361L144.298 19.1859L143.941 18.8358C142.871 19.9259 141.371 21.6719 140.6 22.7545L141.008 23.0443ZM144.298 19.1859L144.651 19.5395C145.69 18.5013 147.416 17.0363 148.447 16.3023L148.157 15.8949L147.867 15.4875C146.787 16.2565 145.018 17.7582 143.944 18.8324L144.298 19.1859ZM148.157 15.8949L148.442 16.306C149.489 15.5813 150.965 14.686 151.718 14.3382L151.509 13.8842L151.299 13.4302C150.469 13.8135 148.938 14.7463 147.873 15.4838L148.157 15.8949ZM151.509 13.8842L151.718 14.3382C152.497 13.9789 153.652 13.522 154.293 13.3275L154.148 12.849L154.003 12.3705C153.304 12.5824 152.105 13.0585 151.299 13.4302L151.509 13.8842ZM154.148 12.849L154.286 13.3298C155.079 13.1033 155.899 13.0048 157.077 13.0441L157.094 12.5443L157.11 12.0446C155.851 12.0027 154.924 12.1074 154.011 12.3683L154.148 12.849ZM156.789 14.8188L156.847 14.3222C156.075 14.2312 155.348 14.3245 154.591 14.5914L154.758 15.0629L154.924 15.5344C155.549 15.3138 156.122 15.2438 156.731 15.3153L156.789 14.8188ZM154.758 15.0629L154.59 14.592C153.96 14.817 152.882 15.4346 152.137 15.952L152.422 16.3627L152.707 16.7734C153.424 16.2754 154.418 15.7152 154.926 15.5338L154.758 15.0629ZM152.422 16.3627L152.137 15.952C151.368 16.4861 150.121 17.6104 149.35 18.4652L149.721 18.8002L150.092 19.1352C150.823 18.3248 152.014 17.2551 152.707 16.7734L152.422 16.3627ZM149.721 18.8002L149.349 18.4652C148.586 19.3116 147.414 20.7708 146.749 21.7473L147.162 22.0287L147.575 22.3101C148.21 21.3777 149.353 19.9542 150.092 19.1352L149.721 18.8002ZM147.162 22.0287L146.749 21.7473C146.086 22.7203 145.08 24.4248 144.503 25.5597L144.948 25.7865L145.394 26.0134C145.953 24.9141 146.938 23.2463 147.575 22.3101L147.162 22.0287ZM144.948 25.7865L144.503 25.5597C144.037 26.4737 143.496 27.7249 143.141 28.6524L143.607 28.8315L144.074 29.0105C144.42 28.1081 144.948 26.8899 145.394 26.0134L144.948 25.7865ZM143.607 28.8315L143.156 28.6163C141.913 31.2246 141.182 33.7475 141.044 35.8069C140.909 37.824 141.338 39.5892 142.668 40.3854L142.925 39.9565L143.182 39.5275C142.367 39.04 141.912 37.8129 142.042 35.8736C142.169 33.9765 142.852 31.5788 144.059 29.0466L143.607 28.8315ZM142.925 39.9565L142.668 40.3855C143.277 40.7502 143.983 40.8477 144.72 40.75L144.654 40.2543L144.589 39.7586C144.02 39.834 143.554 39.7504 143.182 39.5274L142.925 39.9565ZM144.654 40.2543L144.646 40.7542C144.829 40.7574 145.017 40.7479 145.188 40.7208L145.11 40.227L145.032 39.7331C144.932 39.7489 144.803 39.7568 144.663 39.7544L144.654 40.2543ZM145.11 40.227L145.213 40.7162C145.641 40.6262 146.416 40.3679 146.966 40.0817L146.735 39.6381L146.505 39.1945C146.04 39.4364 145.351 39.6652 145.007 39.7377L145.11 40.227ZM146.735 39.6381L146.952 40.0888C147.157 39.9903 147.42 39.8095 147.696 39.5999C147.981 39.3837 148.308 39.1147 148.648 38.8193L148.32 38.4418L147.992 38.0643C147.663 38.3501 147.354 38.6042 147.092 38.8034C146.821 39.0092 146.626 39.1359 146.519 39.1874L146.735 39.6381ZM148.32 38.4418L148.629 38.8353C149.895 37.8425 151.195 36.5053 152.423 34.91L152.027 34.6049L151.631 34.2998C150.443 35.8425 149.2 37.1164 148.012 38.0483L148.32 38.4418ZM152.027 34.6049L152.408 34.9293C152.788 34.4837 153.136 34.0603 153.407 33.7076L153.011 33.4027L152.614 33.0979C152.357 33.4323 152.021 33.8417 151.647 34.2805L152.027 34.6049ZM153.011 33.4027L153.407 33.7076C154.229 32.6396 155.396 30.9611 156.015 29.9715L155.591 29.7065L155.167 29.4415C154.567 30.4017 153.418 32.0536 152.614 33.0979L153.011 33.4027ZM155.591 29.7065L156.017 29.9675C156.634 28.9596 157.575 27.2618 158.128 26.1756L157.683 25.9486L157.237 25.7217C156.694 26.7883 155.766 28.4629 155.164 29.4454L155.591 29.7065ZM157.683 25.9486L158.13 26.1722C158.684 25.0641 159.405 23.4172 159.719 22.4947L159.246 22.3334L158.773 22.1721C158.478 23.0367 157.778 24.6397 157.235 25.725L157.683 25.9486ZM159.246 22.3334L159.719 22.4962C160.161 21.2113 160.315 20.3847 160.315 19.0844L159.815 19.0844L159.315 19.0844C159.315 20.2614 159.184 20.978 158.773 22.1707L159.246 22.3334ZM159.815 19.0844H160.315C160.315 17.8416 160.214 17.1412 159.88 16.4501L159.43 16.6674L158.979 16.8847C159.214 17.3714 159.315 17.8903 159.315 19.0844H159.815ZM159.43 16.6674L159.877 16.4438C159.622 15.9336 159.11 15.308 158.729 14.9991L158.414 15.3871L158.099 15.7752C158.368 15.9943 158.791 16.5076 158.982 16.891L159.43 16.6674ZM158.414 15.3871L158.721 14.9924C158.258 14.6324 157.508 14.3882 156.839 14.3212L156.789 14.8188L156.739 15.3163C157.289 15.3712 157.839 15.5732 158.107 15.7818L158.414 15.3871Z" fill="#EE0B00"/>
</g>
</svg>
